<mxfile host="app.diagrams.net" agent="Mozilla/5.0 (Windows NT 10.0; Win64; x64) AppleWebKit/537.36 (KHTML, like Gecko) Chrome/138.0.0.0 Safari/537.36 Edg/138.0.0.0" version="28.0.4" pages="5">
  <diagram name="All" id="D8Ysf72_npFpk2wjtKsd">
    <mxGraphModel dx="2623" dy="940" grid="1" gridSize="10" guides="1" tooltips="1" connect="1" arrows="1" fold="1" page="1" pageScale="1" pageWidth="850" pageHeight="1100" math="0" shadow="0">
      <root>
        <mxCell id="0" />
        <mxCell id="1" parent="0" />
        <mxCell id="qscbHSwR4hEmLI1HmZ41-1" value="BaseAgent" style="swimlane;fontStyle=1;align=center;verticalAlign=top;childLayout=stackLayout;horizontal=1;startSize=26;horizontalStack=0;resizeParent=1;resizeParentMax=0;resizeLast=0;collapsible=1;marginBottom=0;whiteSpace=wrap;html=1;" vertex="1" parent="1">
          <mxGeometry x="125" y="40" width="260" height="58" as="geometry" />
        </mxCell>
        <mxCell id="qscbHSwR4hEmLI1HmZ41-2" value="- graph: langgraph.state.CompiledStateGraph" style="text;strokeColor=none;fillColor=none;align=left;verticalAlign=top;spacingLeft=4;spacingRight=4;overflow=hidden;rotatable=0;points=[[0,0.5],[1,0.5]];portConstraint=eastwest;whiteSpace=wrap;html=1;" vertex="1" parent="qscbHSwR4hEmLI1HmZ41-1">
          <mxGeometry y="26" width="260" height="24" as="geometry" />
        </mxCell>
        <mxCell id="qscbHSwR4hEmLI1HmZ41-3" value="" style="line;strokeWidth=1;fillColor=none;align=left;verticalAlign=middle;spacingTop=-1;spacingLeft=3;spacingRight=3;rotatable=0;labelPosition=right;points=[];portConstraint=eastwest;strokeColor=inherit;" vertex="1" parent="qscbHSwR4hEmLI1HmZ41-1">
          <mxGeometry y="50" width="260" height="8" as="geometry" />
        </mxCell>
        <mxCell id="qscbHSwR4hEmLI1HmZ41-19" style="edgeStyle=orthogonalEdgeStyle;rounded=0;orthogonalLoop=1;jettySize=auto;html=1;entryX=0.5;entryY=1;entryDx=0;entryDy=0;endArrow=block;endFill=0;" edge="1" parent="1" source="qscbHSwR4hEmLI1HmZ41-4" target="qscbHSwR4hEmLI1HmZ41-1">
          <mxGeometry relative="1" as="geometry">
            <Array as="points">
              <mxPoint x="-50" y="140" />
              <mxPoint x="255" y="140" />
            </Array>
          </mxGeometry>
        </mxCell>
        <mxCell id="qscbHSwR4hEmLI1HmZ41-4" value="RetrievalAgent" style="swimlane;fontStyle=1;align=center;verticalAlign=top;childLayout=stackLayout;horizontal=1;startSize=26;horizontalStack=0;resizeParent=1;resizeParentMax=0;resizeLast=0;collapsible=1;marginBottom=0;whiteSpace=wrap;html=1;" vertex="1" parent="1">
          <mxGeometry x="-170" y="160" width="240" height="110" as="geometry" />
        </mxCell>
        <mxCell id="qscbHSwR4hEmLI1HmZ41-5" value="" style="line;strokeWidth=1;fillColor=none;align=left;verticalAlign=middle;spacingTop=-1;spacingLeft=3;spacingRight=3;rotatable=0;labelPosition=right;points=[];portConstraint=eastwest;strokeColor=inherit;" vertex="1" parent="qscbHSwR4hEmLI1HmZ41-4">
          <mxGeometry y="26" width="240" height="8" as="geometry" />
        </mxCell>
        <mxCell id="qscbHSwR4hEmLI1HmZ41-6" value="&lt;div&gt;+ get_message(&amp;nbsp;&lt;span style=&quot;background-color: transparent; color: light-dark(rgb(0, 0, 0), rgb(255, 255, 255));&quot;&gt;Configuration,&amp;nbsp;&lt;/span&gt;&lt;span style=&quot;background-color: transparent; color: light-dark(rgb(0, 0, 0), rgb(255, 255, 255));&quot;&gt;int):&lt;/span&gt;&lt;/div&gt;&lt;div&gt;list[AnyMessage]&lt;/div&gt;" style="text;strokeColor=none;fillColor=none;align=left;verticalAlign=top;spacingLeft=4;spacingRight=4;overflow=hidden;rotatable=0;points=[[0,0.5],[1,0.5]];portConstraint=eastwest;whiteSpace=wrap;html=1;" vertex="1" parent="qscbHSwR4hEmLI1HmZ41-4">
          <mxGeometry y="34" width="240" height="36" as="geometry" />
        </mxCell>
        <mxCell id="qscbHSwR4hEmLI1HmZ41-29" value="&lt;div&gt;&lt;span style=&quot;background-color: transparent; color: light-dark(rgb(0, 0, 0), rgb(255, 255, 255));&quot;&gt;+ stream(&lt;/span&gt;&lt;span style=&quot;background-color: transparent; color: light-dark(rgb(0, 0, 0), rgb(255, 255, 255));&quot;&gt;str,&amp;nbsp;&lt;/span&gt;&lt;span style=&quot;background-color: transparent; color: light-dark(rgb(0, 0, 0), rgb(255, 255, 255));&quot;&gt;Configuration,&amp;nbsp;&lt;/span&gt;&lt;span style=&quot;background-color: transparent; color: light-dark(rgb(0, 0, 0), rgb(255, 255, 255));&quot;&gt;int):&lt;/span&gt;&lt;/div&gt;&lt;div&gt;str | Any&lt;/div&gt;" style="text;strokeColor=none;fillColor=none;align=left;verticalAlign=top;spacingLeft=4;spacingRight=4;overflow=hidden;rotatable=0;points=[[0,0.5],[1,0.5]];portConstraint=eastwest;whiteSpace=wrap;html=1;" vertex="1" parent="qscbHSwR4hEmLI1HmZ41-4">
          <mxGeometry y="70" width="240" height="40" as="geometry" />
        </mxCell>
        <mxCell id="qscbHSwR4hEmLI1HmZ41-17" style="edgeStyle=orthogonalEdgeStyle;rounded=0;orthogonalLoop=1;jettySize=auto;html=1;entryX=0.5;entryY=1;entryDx=0;entryDy=0;endArrow=block;endFill=0;" edge="1" parent="1" source="qscbHSwR4hEmLI1HmZ41-7" target="qscbHSwR4hEmLI1HmZ41-1">
          <mxGeometry relative="1" as="geometry" />
        </mxCell>
        <mxCell id="qscbHSwR4hEmLI1HmZ41-7" value="ReportAgent" style="swimlane;fontStyle=1;align=center;verticalAlign=top;childLayout=stackLayout;horizontal=1;startSize=26;horizontalStack=0;resizeParent=1;resizeParentMax=0;resizeLast=0;collapsible=1;marginBottom=0;whiteSpace=wrap;html=1;" vertex="1" parent="1">
          <mxGeometry x="90" y="160" width="330" height="74" as="geometry" />
        </mxCell>
        <mxCell id="qscbHSwR4hEmLI1HmZ41-8" value="" style="line;strokeWidth=1;fillColor=none;align=left;verticalAlign=middle;spacingTop=-1;spacingLeft=3;spacingRight=3;rotatable=0;labelPosition=right;points=[];portConstraint=eastwest;strokeColor=inherit;" vertex="1" parent="qscbHSwR4hEmLI1HmZ41-7">
          <mxGeometry y="26" width="330" height="8" as="geometry" />
        </mxCell>
        <mxCell id="qscbHSwR4hEmLI1HmZ41-9" value="&lt;div&gt;+ invoke(&lt;span style=&quot;background-color: transparent; color: light-dark(rgb(0, 0, 0), rgb(255, 255, 255));&quot;&gt;str, L&lt;/span&gt;&lt;span style=&quot;background-color: transparent; color: light-dark(rgb(0, 0, 0), rgb(255, 255, 255));&quot;&gt;iteral[&quot;general&quot;,&quot;technical&quot;],&amp;nbsp;&lt;/span&gt;&lt;span style=&quot;background-color: transparent; color: light-dark(rgb(0, 0, 0), rgb(255, 255, 255));&quot;&gt;Configuration):&lt;/span&gt;&lt;/div&gt;&lt;div&gt;List[Dict[str,str]]&lt;/div&gt;" style="text;strokeColor=none;fillColor=none;align=left;verticalAlign=top;spacingLeft=4;spacingRight=4;overflow=hidden;rotatable=0;points=[[0,0.5],[1,0.5]];portConstraint=eastwest;whiteSpace=wrap;html=1;" vertex="1" parent="qscbHSwR4hEmLI1HmZ41-7">
          <mxGeometry y="34" width="330" height="40" as="geometry" />
        </mxCell>
        <mxCell id="qscbHSwR4hEmLI1HmZ41-18" style="edgeStyle=orthogonalEdgeStyle;rounded=0;orthogonalLoop=1;jettySize=auto;html=1;entryX=0.5;entryY=1;entryDx=0;entryDy=0;endArrow=block;endFill=0;" edge="1" parent="1" source="qscbHSwR4hEmLI1HmZ41-13" target="qscbHSwR4hEmLI1HmZ41-1">
          <mxGeometry relative="1" as="geometry">
            <Array as="points">
              <mxPoint x="560" y="140" />
              <mxPoint x="255" y="140" />
            </Array>
          </mxGeometry>
        </mxCell>
        <mxCell id="qscbHSwR4hEmLI1HmZ41-13" value="ReportAgent" style="swimlane;fontStyle=1;align=center;verticalAlign=top;childLayout=stackLayout;horizontal=1;startSize=26;horizontalStack=0;resizeParent=1;resizeParentMax=0;resizeLast=0;collapsible=1;marginBottom=0;whiteSpace=wrap;html=1;" vertex="1" parent="1">
          <mxGeometry x="440" y="160" width="240" height="60" as="geometry" />
        </mxCell>
        <mxCell id="qscbHSwR4hEmLI1HmZ41-14" value="" style="line;strokeWidth=1;fillColor=none;align=left;verticalAlign=middle;spacingTop=-1;spacingLeft=3;spacingRight=3;rotatable=0;labelPosition=right;points=[];portConstraint=eastwest;strokeColor=inherit;" vertex="1" parent="qscbHSwR4hEmLI1HmZ41-13">
          <mxGeometry y="26" width="240" height="8" as="geometry" />
        </mxCell>
        <mxCell id="qscbHSwR4hEmLI1HmZ41-15" value="&lt;div&gt;+ invoke(&lt;span style=&quot;background-color: transparent; color: light-dark(rgb(0, 0, 0), rgb(255, 255, 255));&quot;&gt;str,&amp;nbsp;&lt;/span&gt;&lt;span style=&quot;background-color: transparent; color: light-dark(rgb(0, 0, 0), rgb(255, 255, 255));&quot;&gt;Configuration)&lt;/span&gt;&lt;/div&gt;" style="text;strokeColor=none;fillColor=none;align=left;verticalAlign=top;spacingLeft=4;spacingRight=4;overflow=hidden;rotatable=0;points=[[0,0.5],[1,0.5]];portConstraint=eastwest;whiteSpace=wrap;html=1;" vertex="1" parent="qscbHSwR4hEmLI1HmZ41-13">
          <mxGeometry y="34" width="240" height="26" as="geometry" />
        </mxCell>
        <mxCell id="qscbHSwR4hEmLI1HmZ41-24" value="Configuration" style="swimlane;fontStyle=1;align=center;verticalAlign=top;childLayout=stackLayout;horizontal=1;startSize=26;horizontalStack=0;resizeParent=1;resizeParentMax=0;resizeLast=0;collapsible=1;marginBottom=0;whiteSpace=wrap;html=1;" vertex="1" parent="1">
          <mxGeometry x="-320" y="323" width="310" height="336" as="geometry" />
        </mxCell>
        <mxCell id="qscbHSwR4hEmLI1HmZ41-32" value="+ embedding_model: str" style="text;strokeColor=none;fillColor=none;align=left;verticalAlign=top;spacingLeft=4;spacingRight=4;overflow=hidden;rotatable=0;points=[[0,0.5],[1,0.5]];portConstraint=eastwest;whiteSpace=wrap;html=1;" vertex="1" parent="qscbHSwR4hEmLI1HmZ41-24">
          <mxGeometry y="26" width="310" height="28" as="geometry" />
        </mxCell>
        <mxCell id="qscbHSwR4hEmLI1HmZ41-25" value="+ number_of_parts: int" style="text;strokeColor=none;fillColor=none;align=left;verticalAlign=top;spacingLeft=4;spacingRight=4;overflow=hidden;rotatable=0;points=[[0,0.5],[1,0.5]];portConstraint=eastwest;whiteSpace=wrap;html=1;" vertex="1" parent="qscbHSwR4hEmLI1HmZ41-24">
          <mxGeometry y="54" width="310" height="26" as="geometry" />
        </mxCell>
        <mxCell id="qscbHSwR4hEmLI1HmZ41-31" value="+ ocr: bool" style="text;strokeColor=none;fillColor=none;align=left;verticalAlign=top;spacingLeft=4;spacingRight=4;overflow=hidden;rotatable=0;points=[[0,0.5],[1,0.5]];portConstraint=eastwest;whiteSpace=wrap;html=1;" vertex="1" parent="qscbHSwR4hEmLI1HmZ41-24">
          <mxGeometry y="80" width="310" height="28" as="geometry" />
        </mxCell>
        <mxCell id="qscbHSwR4hEmLI1HmZ41-28" value="+ ollama_host: str" style="text;strokeColor=none;fillColor=none;align=left;verticalAlign=top;spacingLeft=4;spacingRight=4;overflow=hidden;rotatable=0;points=[[0,0.5],[1,0.5]];portConstraint=eastwest;whiteSpace=wrap;html=1;" vertex="1" parent="qscbHSwR4hEmLI1HmZ41-24">
          <mxGeometry y="108" width="310" height="28" as="geometry" />
        </mxCell>
        <mxCell id="qscbHSwR4hEmLI1HmZ41-35" value="+ query_model: str" style="text;strokeColor=none;fillColor=none;align=left;verticalAlign=top;spacingLeft=4;spacingRight=4;overflow=hidden;rotatable=0;points=[[0,0.5],[1,0.5]];portConstraint=eastwest;whiteSpace=wrap;html=1;" vertex="1" parent="qscbHSwR4hEmLI1HmZ41-24">
          <mxGeometry y="136" width="310" height="28" as="geometry" />
        </mxCell>
        <mxCell id="qscbHSwR4hEmLI1HmZ41-33" value="+ response_model: str" style="text;strokeColor=none;fillColor=none;align=left;verticalAlign=top;spacingLeft=4;spacingRight=4;overflow=hidden;rotatable=0;points=[[0,0.5],[1,0.5]];portConstraint=eastwest;whiteSpace=wrap;html=1;" vertex="1" parent="qscbHSwR4hEmLI1HmZ41-24">
          <mxGeometry y="164" width="310" height="28" as="geometry" />
        </mxCell>
        <mxCell id="qscbHSwR4hEmLI1HmZ41-34" value="+ report_model: str" style="text;strokeColor=none;fillColor=none;align=left;verticalAlign=top;spacingLeft=4;spacingRight=4;overflow=hidden;rotatable=0;points=[[0,0.5],[1,0.5]];portConstraint=eastwest;whiteSpace=wrap;html=1;" vertex="1" parent="qscbHSwR4hEmLI1HmZ41-24">
          <mxGeometry y="192" width="310" height="28" as="geometry" />
        </mxCell>
        <mxCell id="qscbHSwR4hEmLI1HmZ41-36" value="+ vision_model: str" style="text;strokeColor=none;fillColor=none;align=left;verticalAlign=top;spacingLeft=4;spacingRight=4;overflow=hidden;rotatable=0;points=[[0,0.5],[1,0.5]];portConstraint=eastwest;whiteSpace=wrap;html=1;" vertex="1" parent="qscbHSwR4hEmLI1HmZ41-24">
          <mxGeometry y="220" width="310" height="28" as="geometry" />
        </mxCell>
        <mxCell id="qscbHSwR4hEmLI1HmZ41-30" value="+ writing_style: Literal[&quot;technical&quot; , &quot;general&quot;]" style="text;strokeColor=none;fillColor=none;align=left;verticalAlign=top;spacingLeft=4;spacingRight=4;overflow=hidden;rotatable=0;points=[[0,0.5],[1,0.5]];portConstraint=eastwest;whiteSpace=wrap;html=1;" vertex="1" parent="qscbHSwR4hEmLI1HmZ41-24">
          <mxGeometry y="248" width="310" height="28" as="geometry" />
        </mxCell>
        <mxCell id="qscbHSwR4hEmLI1HmZ41-26" value="" style="line;strokeWidth=1;fillColor=none;align=left;verticalAlign=middle;spacingTop=-1;spacingLeft=3;spacingRight=3;rotatable=0;labelPosition=right;points=[];portConstraint=eastwest;strokeColor=inherit;" vertex="1" parent="qscbHSwR4hEmLI1HmZ41-24">
          <mxGeometry y="276" width="310" height="8" as="geometry" />
        </mxCell>
        <mxCell id="qscbHSwR4hEmLI1HmZ41-27" value="+ asdict(): dict[str, Any]" style="text;strokeColor=none;fillColor=none;align=left;verticalAlign=top;spacingLeft=4;spacingRight=4;overflow=hidden;rotatable=0;points=[[0,0.5],[1,0.5]];portConstraint=eastwest;whiteSpace=wrap;html=1;" vertex="1" parent="qscbHSwR4hEmLI1HmZ41-24">
          <mxGeometry y="284" width="310" height="26" as="geometry" />
        </mxCell>
        <mxCell id="qscbHSwR4hEmLI1HmZ41-37" value="+ from_runnable_config(RunnableConfig): Configuration" style="text;strokeColor=none;fillColor=none;align=left;verticalAlign=top;spacingLeft=4;spacingRight=4;overflow=hidden;rotatable=0;points=[[0,0.5],[1,0.5]];portConstraint=eastwest;whiteSpace=wrap;html=1;" vertex="1" parent="qscbHSwR4hEmLI1HmZ41-24">
          <mxGeometry y="310" width="310" height="26" as="geometry" />
        </mxCell>
        <mxCell id="qscbHSwR4hEmLI1HmZ41-42" value="&lt;b&gt;InputState&lt;/b&gt;" style="swimlane;fontStyle=0;childLayout=stackLayout;horizontal=1;startSize=26;fillColor=none;horizontalStack=0;resizeParent=1;resizeParentMax=0;resizeLast=0;collapsible=1;marginBottom=0;whiteSpace=wrap;html=1;" vertex="1" parent="1">
          <mxGeometry x="260" y="310" width="400" height="52" as="geometry" />
        </mxCell>
        <mxCell id="qscbHSwR4hEmLI1HmZ41-43" value="+ messages: Annotated[Sequence[AnyMessage], add_messages]" style="text;strokeColor=none;fillColor=none;align=left;verticalAlign=top;spacingLeft=4;spacingRight=4;overflow=hidden;rotatable=0;points=[[0,0.5],[1,0.5]];portConstraint=eastwest;whiteSpace=wrap;html=1;" vertex="1" parent="qscbHSwR4hEmLI1HmZ41-42">
          <mxGeometry y="26" width="400" height="26" as="geometry" />
        </mxCell>
        <mxCell id="qscbHSwR4hEmLI1HmZ41-70" style="edgeStyle=orthogonalEdgeStyle;rounded=0;orthogonalLoop=1;jettySize=auto;html=1;entryX=0.5;entryY=1;entryDx=0;entryDy=0;endArrow=block;endFill=0;" edge="1" parent="1" source="qscbHSwR4hEmLI1HmZ41-46" target="qscbHSwR4hEmLI1HmZ41-42">
          <mxGeometry relative="1" as="geometry" />
        </mxCell>
        <mxCell id="qscbHSwR4hEmLI1HmZ41-46" value="&lt;b&gt;RetrievalState&lt;/b&gt;" style="swimlane;fontStyle=0;childLayout=stackLayout;horizontal=1;startSize=26;fillColor=none;horizontalStack=0;resizeParent=1;resizeParentMax=0;resizeLast=0;collapsible=1;marginBottom=0;whiteSpace=wrap;html=1;" vertex="1" parent="1">
          <mxGeometry x="120" y="400" width="330" height="104" as="geometry" />
        </mxCell>
        <mxCell id="qscbHSwR4hEmLI1HmZ41-48" value="+ query: str" style="text;strokeColor=none;fillColor=none;align=left;verticalAlign=top;spacingLeft=4;spacingRight=4;overflow=hidden;rotatable=0;points=[[0,0.5],[1,0.5]];portConstraint=eastwest;whiteSpace=wrap;html=1;" vertex="1" parent="qscbHSwR4hEmLI1HmZ41-46">
          <mxGeometry y="26" width="330" height="26" as="geometry" />
        </mxCell>
        <mxCell id="qscbHSwR4hEmLI1HmZ41-47" value="+ retrieved_docs: list[langchain_core.documents.Document]" style="text;strokeColor=none;fillColor=none;align=left;verticalAlign=top;spacingLeft=4;spacingRight=4;overflow=hidden;rotatable=0;points=[[0,0.5],[1,0.5]];portConstraint=eastwest;whiteSpace=wrap;html=1;" vertex="1" parent="qscbHSwR4hEmLI1HmZ41-46">
          <mxGeometry y="52" width="330" height="26" as="geometry" />
        </mxCell>
        <mxCell id="qscbHSwR4hEmLI1HmZ41-49" value="+ summary: str" style="text;strokeColor=none;fillColor=none;align=left;verticalAlign=top;spacingLeft=4;spacingRight=4;overflow=hidden;rotatable=0;points=[[0,0.5],[1,0.5]];portConstraint=eastwest;whiteSpace=wrap;html=1;" vertex="1" parent="qscbHSwR4hEmLI1HmZ41-46">
          <mxGeometry y="78" width="330" height="26" as="geometry" />
        </mxCell>
        <mxCell id="qscbHSwR4hEmLI1HmZ41-94" style="edgeStyle=orthogonalEdgeStyle;rounded=0;orthogonalLoop=1;jettySize=auto;html=1;endArrow=block;endFill=0;" edge="1" parent="1" source="qscbHSwR4hEmLI1HmZ41-50" target="qscbHSwR4hEmLI1HmZ41-42">
          <mxGeometry relative="1" as="geometry" />
        </mxCell>
        <mxCell id="qscbHSwR4hEmLI1HmZ41-50" value="&lt;b&gt;ReportState&lt;/b&gt;" style="swimlane;fontStyle=0;childLayout=stackLayout;horizontal=1;startSize=26;fillColor=none;horizontalStack=0;resizeParent=1;resizeParentMax=0;resizeLast=0;collapsible=1;marginBottom=0;whiteSpace=wrap;html=1;" vertex="1" parent="1">
          <mxGeometry x="470" y="400" width="330" height="182" as="geometry" />
        </mxCell>
        <mxCell id="qscbHSwR4hEmLI1HmZ41-60" value="+ current_section_index: str" style="text;strokeColor=none;fillColor=none;align=left;verticalAlign=top;spacingLeft=4;spacingRight=4;overflow=hidden;rotatable=0;points=[[0,0.5],[1,0.5]];portConstraint=eastwest;whiteSpace=wrap;html=1;" vertex="1" parent="qscbHSwR4hEmLI1HmZ41-50">
          <mxGeometry y="26" width="330" height="26" as="geometry" />
        </mxCell>
        <mxCell id="qscbHSwR4hEmLI1HmZ41-59" value="+ raw_section: str" style="text;strokeColor=none;fillColor=none;align=left;verticalAlign=top;spacingLeft=4;spacingRight=4;overflow=hidden;rotatable=0;points=[[0,0.5],[1,0.5]];portConstraint=eastwest;whiteSpace=wrap;html=1;" vertex="1" parent="qscbHSwR4hEmLI1HmZ41-50">
          <mxGeometry y="52" width="330" height="26" as="geometry" />
        </mxCell>
        <mxCell id="qscbHSwR4hEmLI1HmZ41-52" value="+ report: Annotated[list[dict[str, str]], add_section]" style="text;strokeColor=none;fillColor=none;align=left;verticalAlign=top;spacingLeft=4;spacingRight=4;overflow=hidden;rotatable=0;points=[[0,0.5],[1,0.5]];portConstraint=eastwest;whiteSpace=wrap;html=1;" vertex="1" parent="qscbHSwR4hEmLI1HmZ41-50">
          <mxGeometry y="78" width="330" height="26" as="geometry" />
        </mxCell>
        <mxCell id="qscbHSwR4hEmLI1HmZ41-58" value="+ report_header: str" style="text;strokeColor=none;fillColor=none;align=left;verticalAlign=top;spacingLeft=4;spacingRight=4;overflow=hidden;rotatable=0;points=[[0,0.5],[1,0.5]];portConstraint=eastwest;whiteSpace=wrap;html=1;" vertex="1" parent="qscbHSwR4hEmLI1HmZ41-50">
          <mxGeometry y="104" width="330" height="26" as="geometry" />
        </mxCell>
        <mxCell id="qscbHSwR4hEmLI1HmZ41-53" value="+ retrieved_docs: list[langchain_core.documents.Document]" style="text;strokeColor=none;fillColor=none;align=left;verticalAlign=top;spacingLeft=4;spacingRight=4;overflow=hidden;rotatable=0;points=[[0,0.5],[1,0.5]];portConstraint=eastwest;whiteSpace=wrap;html=1;" vertex="1" parent="qscbHSwR4hEmLI1HmZ41-50">
          <mxGeometry y="130" width="330" height="26" as="geometry" />
        </mxCell>
        <mxCell id="qscbHSwR4hEmLI1HmZ41-51" value="+ outlines: list[dict[str, str]]" style="text;strokeColor=none;fillColor=none;align=left;verticalAlign=top;spacingLeft=4;spacingRight=4;overflow=hidden;rotatable=0;points=[[0,0.5],[1,0.5]];portConstraint=eastwest;whiteSpace=wrap;html=1;" vertex="1" parent="qscbHSwR4hEmLI1HmZ41-50">
          <mxGeometry y="156" width="330" height="26" as="geometry" />
        </mxCell>
        <mxCell id="qscbHSwR4hEmLI1HmZ41-61" value="&lt;b&gt;IndexInputState&lt;/b&gt;" style="swimlane;fontStyle=0;childLayout=stackLayout;horizontal=1;startSize=26;fillColor=none;horizontalStack=0;resizeParent=1;resizeParentMax=0;resizeLast=0;collapsible=1;marginBottom=0;whiteSpace=wrap;html=1;" vertex="1" parent="1">
          <mxGeometry x="165" y="550" width="270" height="52" as="geometry" />
        </mxCell>
        <mxCell id="qscbHSwR4hEmLI1HmZ41-62" value="+ path: str" style="text;strokeColor=none;fillColor=none;align=left;verticalAlign=top;spacingLeft=4;spacingRight=4;overflow=hidden;rotatable=0;points=[[0,0.5],[1,0.5]];portConstraint=eastwest;whiteSpace=wrap;html=1;" vertex="1" parent="qscbHSwR4hEmLI1HmZ41-61">
          <mxGeometry y="26" width="270" height="26" as="geometry" />
        </mxCell>
        <mxCell id="qscbHSwR4hEmLI1HmZ41-74" style="edgeStyle=orthogonalEdgeStyle;rounded=0;orthogonalLoop=1;jettySize=auto;html=1;entryX=0.5;entryY=1;entryDx=0;entryDy=0;endArrow=block;endFill=0;" edge="1" parent="1" source="qscbHSwR4hEmLI1HmZ41-68" target="qscbHSwR4hEmLI1HmZ41-61">
          <mxGeometry relative="1" as="geometry" />
        </mxCell>
        <mxCell id="qscbHSwR4hEmLI1HmZ41-68" value="&lt;b&gt;IndexState&lt;/b&gt;" style="swimlane;fontStyle=0;childLayout=stackLayout;horizontal=1;startSize=26;fillColor=none;horizontalStack=0;resizeParent=1;resizeParentMax=0;resizeLast=0;collapsible=1;marginBottom=0;whiteSpace=wrap;html=1;" vertex="1" parent="1">
          <mxGeometry x="70" y="630" width="460" height="52" as="geometry" />
        </mxCell>
        <mxCell id="qscbHSwR4hEmLI1HmZ41-69" value="+ docs: Annotated[Sequence[langchain_core.documents.Document], reduce_docs]" style="text;strokeColor=none;fillColor=none;align=left;verticalAlign=top;spacingLeft=4;spacingRight=4;overflow=hidden;rotatable=0;points=[[0,0.5],[1,0.5]];portConstraint=eastwest;whiteSpace=wrap;html=1;" vertex="1" parent="qscbHSwR4hEmLI1HmZ41-68">
          <mxGeometry y="26" width="460" height="26" as="geometry" />
        </mxCell>
        <mxCell id="qscbHSwR4hEmLI1HmZ41-75" value="MarkdownToPDF" style="swimlane;fontStyle=1;align=center;verticalAlign=top;childLayout=stackLayout;horizontal=1;startSize=26;horizontalStack=0;resizeParent=1;resizeParentMax=0;resizeLast=0;collapsible=1;marginBottom=0;whiteSpace=wrap;html=1;" vertex="1" parent="1">
          <mxGeometry x="-250" y="780" width="590" height="216" as="geometry" />
        </mxCell>
        <mxCell id="qscbHSwR4hEmLI1HmZ41-76" value="- page_size: reportlab.lib.pagesizes" style="text;strokeColor=none;fillColor=none;align=left;verticalAlign=top;spacingLeft=4;spacingRight=4;overflow=hidden;rotatable=0;points=[[0,0.5],[1,0.5]];portConstraint=eastwest;whiteSpace=wrap;html=1;" vertex="1" parent="qscbHSwR4hEmLI1HmZ41-75">
          <mxGeometry y="26" width="590" height="26" as="geometry" />
        </mxCell>
        <mxCell id="qscbHSwR4hEmLI1HmZ41-79" value="- styles: {&quot;title&quot;: reportlab.lib.styles.ParagraphStyle, &quot;content&quot;: reportlab.lib.styles.ParagraphStyle}" style="text;strokeColor=none;fillColor=none;align=left;verticalAlign=top;spacingLeft=4;spacingRight=4;overflow=hidden;rotatable=0;points=[[0,0.5],[1,0.5]];portConstraint=eastwest;whiteSpace=wrap;html=1;" vertex="1" parent="qscbHSwR4hEmLI1HmZ41-75">
          <mxGeometry y="52" width="590" height="26" as="geometry" />
        </mxCell>
        <mxCell id="qscbHSwR4hEmLI1HmZ41-77" value="" style="line;strokeWidth=1;fillColor=none;align=left;verticalAlign=middle;spacingTop=-1;spacingLeft=3;spacingRight=3;rotatable=0;labelPosition=right;points=[];portConstraint=eastwest;strokeColor=inherit;" vertex="1" parent="qscbHSwR4hEmLI1HmZ41-75">
          <mxGeometry y="78" width="590" height="8" as="geometry" />
        </mxCell>
        <mxCell id="qscbHSwR4hEmLI1HmZ41-78" value="- create_styles(): {&quot;title&quot;: reportlab.lib.styles.ParagraphStyle, &quot;content&quot;: reportlab.lib.styles.ParagraphStyle}" style="text;strokeColor=none;fillColor=none;align=left;verticalAlign=top;spacingLeft=4;spacingRight=4;overflow=hidden;rotatable=0;points=[[0,0.5],[1,0.5]];portConstraint=eastwest;whiteSpace=wrap;html=1;" vertex="1" parent="qscbHSwR4hEmLI1HmZ41-75">
          <mxGeometry y="86" width="590" height="26" as="geometry" />
        </mxCell>
        <mxCell id="qscbHSwR4hEmLI1HmZ41-80" value="- filter_ignored_tokens(str): str&lt;span style=&quot;color: rgba(0, 0, 0, 0); font-family: monospace; font-size: 0px; text-wrap-mode: nowrap;&quot;&gt;%3CmxGraphModel%3E%3Croot%3E%3CmxCell%20id%3D%220%22%2F%3E%3CmxCell%20id%3D%221%22%20parent%3D%220%22%2F%3E%3CmxCell%20id%3D%222%22%20value%3D%22-%20create_styles()%3A%20%7B%26quot%3Btitle%26quot%3B%3A%20reportlab.lib.styles.ParagraphStyle%2C%20%26quot%3Bcontent%26quot%3B%3A%20reportlab.lib.styles.ParagraphStyle%7D%22%20style%3D%22text%3BstrokeColor%3Dnone%3BfillColor%3Dnone%3Balign%3Dleft%3BverticalAlign%3Dtop%3BspacingLeft%3D4%3BspacingRight%3D4%3Boverflow%3Dhidden%3Brotatable%3D0%3Bpoints%3D%5B%5B0%2C0.5%5D%2C%5B1%2C0.5%5D%5D%3BportConstraint%3Deastwest%3BwhiteSpace%3Dwrap%3Bhtml%3D1%3B%22%20vertex%3D%221%22%20parent%3D%221%22%3E%3CmxGeometry%20x%3D%22-240%22%20y%3D%22876%22%20width%3D%22590%22%20height%3D%2226%22%20as%3D%22geometry%22%2F%3E%3C%2FmxCell%3E%3C%2Froot%3E%3C%2FmxGraphModel%3E&lt;/span&gt;" style="text;strokeColor=none;fillColor=none;align=left;verticalAlign=top;spacingLeft=4;spacingRight=4;overflow=hidden;rotatable=0;points=[[0,0.5],[1,0.5]];portConstraint=eastwest;whiteSpace=wrap;html=1;" vertex="1" parent="qscbHSwR4hEmLI1HmZ41-75">
          <mxGeometry y="112" width="590" height="26" as="geometry" />
        </mxCell>
        <mxCell id="qscbHSwR4hEmLI1HmZ41-81" value="- clean_think_tags(str): str" style="text;strokeColor=none;fillColor=none;align=left;verticalAlign=top;spacingLeft=4;spacingRight=4;overflow=hidden;rotatable=0;points=[[0,0.5],[1,0.5]];portConstraint=eastwest;whiteSpace=wrap;html=1;" vertex="1" parent="qscbHSwR4hEmLI1HmZ41-75">
          <mxGeometry y="138" width="590" height="26" as="geometry" />
        </mxCell>
        <mxCell id="qscbHSwR4hEmLI1HmZ41-82" value="- markdown_to_reportlab(str): str" style="text;strokeColor=none;fillColor=none;align=left;verticalAlign=top;spacingLeft=4;spacingRight=4;overflow=hidden;rotatable=0;points=[[0,0.5],[1,0.5]];portConstraint=eastwest;whiteSpace=wrap;html=1;" vertex="1" parent="qscbHSwR4hEmLI1HmZ41-75">
          <mxGeometry y="164" width="590" height="26" as="geometry" />
        </mxCell>
        <mxCell id="qscbHSwR4hEmLI1HmZ41-83" value="+ generate_pdf(list[dict[str, str]], str, str, str): str" style="text;strokeColor=none;fillColor=none;align=left;verticalAlign=top;spacingLeft=4;spacingRight=4;overflow=hidden;rotatable=0;points=[[0,0.5],[1,0.5]];portConstraint=eastwest;whiteSpace=wrap;html=1;" vertex="1" parent="qscbHSwR4hEmLI1HmZ41-75">
          <mxGeometry y="190" width="590" height="26" as="geometry" />
        </mxCell>
        <mxCell id="qscbHSwR4hEmLI1HmZ41-84" value="VisionLoader(langchain_core.documents_loader.BaseLoader)" style="swimlane;fontStyle=1;align=center;verticalAlign=top;childLayout=stackLayout;horizontal=1;startSize=26;horizontalStack=0;resizeParent=1;resizeParentMax=0;resizeLast=0;collapsible=1;marginBottom=0;whiteSpace=wrap;html=1;" vertex="1" parent="1">
          <mxGeometry x="375" y="780" width="410" height="216" as="geometry" />
        </mxCell>
        <mxCell id="qscbHSwR4hEmLI1HmZ41-85" value="- file_path: str" style="text;strokeColor=none;fillColor=none;align=left;verticalAlign=top;spacingLeft=4;spacingRight=4;overflow=hidden;rotatable=0;points=[[0,0.5],[1,0.5]];portConstraint=eastwest;whiteSpace=wrap;html=1;" vertex="1" parent="qscbHSwR4hEmLI1HmZ41-84">
          <mxGeometry y="26" width="410" height="26" as="geometry" />
        </mxCell>
        <mxCell id="qscbHSwR4hEmLI1HmZ41-93" value="- mode: Literal[&quot;single&quot;, &quot;page&quot;]" style="text;strokeColor=none;fillColor=none;align=left;verticalAlign=top;spacingLeft=4;spacingRight=4;overflow=hidden;rotatable=0;points=[[0,0.5],[1,0.5]];portConstraint=eastwest;whiteSpace=wrap;html=1;" vertex="1" parent="qscbHSwR4hEmLI1HmZ41-84">
          <mxGeometry y="52" width="410" height="26" as="geometry" />
        </mxCell>
        <mxCell id="qscbHSwR4hEmLI1HmZ41-86" value="- pipeline: parser.PDFToMarkdownPipeline" style="text;strokeColor=none;fillColor=none;align=left;verticalAlign=top;spacingLeft=4;spacingRight=4;overflow=hidden;rotatable=0;points=[[0,0.5],[1,0.5]];portConstraint=eastwest;whiteSpace=wrap;html=1;" vertex="1" parent="qscbHSwR4hEmLI1HmZ41-84">
          <mxGeometry y="78" width="410" height="26" as="geometry" />
        </mxCell>
        <mxCell id="qscbHSwR4hEmLI1HmZ41-87" value="" style="line;strokeWidth=1;fillColor=none;align=left;verticalAlign=middle;spacingTop=-1;spacingLeft=3;spacingRight=3;rotatable=0;labelPosition=right;points=[];portConstraint=eastwest;strokeColor=inherit;" vertex="1" parent="qscbHSwR4hEmLI1HmZ41-84">
          <mxGeometry y="104" width="410" height="8" as="geometry" />
        </mxCell>
        <mxCell id="qscbHSwR4hEmLI1HmZ41-88" value="+ load(): list[langchain_core.documents.Document]" style="text;strokeColor=none;fillColor=none;align=left;verticalAlign=top;spacingLeft=4;spacingRight=4;overflow=hidden;rotatable=0;points=[[0,0.5],[1,0.5]];portConstraint=eastwest;whiteSpace=wrap;html=1;" vertex="1" parent="qscbHSwR4hEmLI1HmZ41-84">
          <mxGeometry y="112" width="410" height="26" as="geometry" />
        </mxCell>
        <mxCell id="qscbHSwR4hEmLI1HmZ41-96" value="+ lazy_load()" style="text;strokeColor=none;fillColor=none;align=left;verticalAlign=top;spacingLeft=4;spacingRight=4;overflow=hidden;rotatable=0;points=[[0,0.5],[1,0.5]];portConstraint=eastwest;whiteSpace=wrap;html=1;" vertex="1" parent="qscbHSwR4hEmLI1HmZ41-84">
          <mxGeometry y="138" width="410" height="26" as="geometry" />
        </mxCell>
        <mxCell id="qscbHSwR4hEmLI1HmZ41-97" value="+ aload()" style="text;strokeColor=none;fillColor=none;align=left;verticalAlign=top;spacingLeft=4;spacingRight=4;overflow=hidden;rotatable=0;points=[[0,0.5],[1,0.5]];portConstraint=eastwest;whiteSpace=wrap;html=1;" vertex="1" parent="qscbHSwR4hEmLI1HmZ41-84">
          <mxGeometry y="164" width="410" height="26" as="geometry" />
        </mxCell>
        <mxCell id="qscbHSwR4hEmLI1HmZ41-98" value="+ alazy_load()" style="text;strokeColor=none;fillColor=none;align=left;verticalAlign=top;spacingLeft=4;spacingRight=4;overflow=hidden;rotatable=0;points=[[0,0.5],[1,0.5]];portConstraint=eastwest;whiteSpace=wrap;html=1;" vertex="1" parent="qscbHSwR4hEmLI1HmZ41-84">
          <mxGeometry y="190" width="410" height="26" as="geometry" />
        </mxCell>
        <mxCell id="qscbHSwR4hEmLI1HmZ41-99" value="&lt;b&gt;ValidationResult&lt;/b&gt;" style="swimlane;fontStyle=0;childLayout=stackLayout;horizontal=1;startSize=26;fillColor=none;horizontalStack=0;resizeParent=1;resizeParentMax=0;resizeLast=0;collapsible=1;marginBottom=0;whiteSpace=wrap;html=1;" vertex="1" parent="1">
          <mxGeometry x="200" y="1160" width="330" height="312" as="geometry" />
        </mxCell>
        <mxCell id="qscbHSwR4hEmLI1HmZ41-100" value="+ word_overlap_ratio: float" style="text;strokeColor=none;fillColor=none;align=left;verticalAlign=top;spacingLeft=4;spacingRight=4;overflow=hidden;rotatable=0;points=[[0,0.5],[1,0.5]];portConstraint=eastwest;whiteSpace=wrap;html=1;" vertex="1" parent="qscbHSwR4hEmLI1HmZ41-99">
          <mxGeometry y="26" width="330" height="26" as="geometry" />
        </mxCell>
        <mxCell id="qscbHSwR4hEmLI1HmZ41-101" value="+ char_overlap_ratio: float" style="text;strokeColor=none;fillColor=none;align=left;verticalAlign=top;spacingLeft=4;spacingRight=4;overflow=hidden;rotatable=0;points=[[0,0.5],[1,0.5]];portConstraint=eastwest;whiteSpace=wrap;html=1;" vertex="1" parent="qscbHSwR4hEmLI1HmZ41-99">
          <mxGeometry y="52" width="330" height="26" as="geometry" />
        </mxCell>
        <mxCell id="qscbHSwR4hEmLI1HmZ41-102" value="+ sentence_overlap_ratio: float" style="text;strokeColor=none;fillColor=none;align=left;verticalAlign=top;spacingLeft=4;spacingRight=4;overflow=hidden;rotatable=0;points=[[0,0.5],[1,0.5]];portConstraint=eastwest;whiteSpace=wrap;html=1;" vertex="1" parent="qscbHSwR4hEmLI1HmZ41-99">
          <mxGeometry y="78" width="330" height="26" as="geometry" />
        </mxCell>
        <mxCell id="qscbHSwR4hEmLI1HmZ41-103" value="+ semantic_similarity: float" style="text;strokeColor=none;fillColor=none;align=left;verticalAlign=top;spacingLeft=4;spacingRight=4;overflow=hidden;rotatable=0;points=[[0,0.5],[1,0.5]];portConstraint=eastwest;whiteSpace=wrap;html=1;" vertex="1" parent="qscbHSwR4hEmLI1HmZ41-99">
          <mxGeometry y="104" width="330" height="26" as="geometry" />
        </mxCell>
        <mxCell id="qscbHSwR4hEmLI1HmZ41-104" value="+ extracted_word_count: int" style="text;strokeColor=none;fillColor=none;align=left;verticalAlign=top;spacingLeft=4;spacingRight=4;overflow=hidden;rotatable=0;points=[[0,0.5],[1,0.5]];portConstraint=eastwest;whiteSpace=wrap;html=1;" vertex="1" parent="qscbHSwR4hEmLI1HmZ41-99">
          <mxGeometry y="130" width="330" height="26" as="geometry" />
        </mxCell>
        <mxCell id="qscbHSwR4hEmLI1HmZ41-105" value="+ llm_word_count: int" style="text;strokeColor=none;fillColor=none;align=left;verticalAlign=top;spacingLeft=4;spacingRight=4;overflow=hidden;rotatable=0;points=[[0,0.5],[1,0.5]];portConstraint=eastwest;whiteSpace=wrap;html=1;" vertex="1" parent="qscbHSwR4hEmLI1HmZ41-99">
          <mxGeometry y="156" width="330" height="26" as="geometry" />
        </mxCell>
        <mxCell id="qscbHSwR4hEmLI1HmZ41-106" value="+ missing_words: set[str]" style="text;strokeColor=none;fillColor=none;align=left;verticalAlign=top;spacingLeft=4;spacingRight=4;overflow=hidden;rotatable=0;points=[[0,0.5],[1,0.5]];portConstraint=eastwest;whiteSpace=wrap;html=1;" vertex="1" parent="qscbHSwR4hEmLI1HmZ41-99">
          <mxGeometry y="182" width="330" height="26" as="geometry" />
        </mxCell>
        <mxCell id="qscbHSwR4hEmLI1HmZ41-107" value="+ extra_content_ration: float" style="text;strokeColor=none;fillColor=none;align=left;verticalAlign=top;spacingLeft=4;spacingRight=4;overflow=hidden;rotatable=0;points=[[0,0.5],[1,0.5]];portConstraint=eastwest;whiteSpace=wrap;html=1;" vertex="1" parent="qscbHSwR4hEmLI1HmZ41-99">
          <mxGeometry y="208" width="330" height="26" as="geometry" />
        </mxCell>
        <mxCell id="qscbHSwR4hEmLI1HmZ41-108" value="+ validation_score: float" style="text;strokeColor=none;fillColor=none;align=left;verticalAlign=top;spacingLeft=4;spacingRight=4;overflow=hidden;rotatable=0;points=[[0,0.5],[1,0.5]];portConstraint=eastwest;whiteSpace=wrap;html=1;" vertex="1" parent="qscbHSwR4hEmLI1HmZ41-99">
          <mxGeometry y="234" width="330" height="26" as="geometry" />
        </mxCell>
        <mxCell id="qscbHSwR4hEmLI1HmZ41-109" value="+ passed_threshold: bool" style="text;strokeColor=none;fillColor=none;align=left;verticalAlign=top;spacingLeft=4;spacingRight=4;overflow=hidden;rotatable=0;points=[[0,0.5],[1,0.5]];portConstraint=eastwest;whiteSpace=wrap;html=1;" vertex="1" parent="qscbHSwR4hEmLI1HmZ41-99">
          <mxGeometry y="260" width="330" height="26" as="geometry" />
        </mxCell>
        <mxCell id="qscbHSwR4hEmLI1HmZ41-110" value="+ metadata: dict" style="text;strokeColor=none;fillColor=none;align=left;verticalAlign=top;spacingLeft=4;spacingRight=4;overflow=hidden;rotatable=0;points=[[0,0.5],[1,0.5]];portConstraint=eastwest;whiteSpace=wrap;html=1;" vertex="1" parent="qscbHSwR4hEmLI1HmZ41-99">
          <mxGeometry y="286" width="330" height="26" as="geometry" />
        </mxCell>
        <mxCell id="qscbHSwR4hEmLI1HmZ41-111" value="TextValidator" style="swimlane;fontStyle=1;align=center;verticalAlign=top;childLayout=stackLayout;horizontal=1;startSize=26;horizontalStack=0;resizeParent=1;resizeParentMax=0;resizeLast=0;collapsible=1;marginBottom=0;whiteSpace=wrap;html=1;" vertex="1" parent="1">
          <mxGeometry x="-250" y="1160" width="410" height="502" as="geometry" />
        </mxCell>
        <mxCell id="qscbHSwR4hEmLI1HmZ41-112" value="- word_threshold: float" style="text;strokeColor=none;fillColor=none;align=left;verticalAlign=top;spacingLeft=4;spacingRight=4;overflow=hidden;rotatable=0;points=[[0,0.5],[1,0.5]];portConstraint=eastwest;whiteSpace=wrap;html=1;" vertex="1" parent="qscbHSwR4hEmLI1HmZ41-111">
          <mxGeometry y="26" width="410" height="26" as="geometry" />
        </mxCell>
        <mxCell id="qscbHSwR4hEmLI1HmZ41-113" value="- char_threshold: float" style="text;strokeColor=none;fillColor=none;align=left;verticalAlign=top;spacingLeft=4;spacingRight=4;overflow=hidden;rotatable=0;points=[[0,0.5],[1,0.5]];portConstraint=eastwest;whiteSpace=wrap;html=1;" vertex="1" parent="qscbHSwR4hEmLI1HmZ41-111">
          <mxGeometry y="52" width="410" height="26" as="geometry" />
        </mxCell>
        <mxCell id="qscbHSwR4hEmLI1HmZ41-114" value="- sentence_threshold: float" style="text;strokeColor=none;fillColor=none;align=left;verticalAlign=top;spacingLeft=4;spacingRight=4;overflow=hidden;rotatable=0;points=[[0,0.5],[1,0.5]];portConstraint=eastwest;whiteSpace=wrap;html=1;" vertex="1" parent="qscbHSwR4hEmLI1HmZ41-111">
          <mxGeometry y="78" width="410" height="26" as="geometry" />
        </mxCell>
        <mxCell id="qscbHSwR4hEmLI1HmZ41-120" value="- overall_threshold: float" style="text;strokeColor=none;fillColor=none;align=left;verticalAlign=top;spacingLeft=4;spacingRight=4;overflow=hidden;rotatable=0;points=[[0,0.5],[1,0.5]];portConstraint=eastwest;whiteSpace=wrap;html=1;" vertex="1" parent="qscbHSwR4hEmLI1HmZ41-111">
          <mxGeometry y="104" width="410" height="26" as="geometry" />
        </mxCell>
        <mxCell id="qscbHSwR4hEmLI1HmZ41-115" value="" style="line;strokeWidth=1;fillColor=none;align=left;verticalAlign=middle;spacingTop=-1;spacingLeft=3;spacingRight=3;rotatable=0;labelPosition=right;points=[];portConstraint=eastwest;strokeColor=inherit;" vertex="1" parent="qscbHSwR4hEmLI1HmZ41-111">
          <mxGeometry y="130" width="410" height="8" as="geometry" />
        </mxCell>
        <mxCell id="qscbHSwR4hEmLI1HmZ41-116" value="+ validate_page(fitz.Page, str): ValidationResult" style="text;strokeColor=none;fillColor=none;align=left;verticalAlign=top;spacingLeft=4;spacingRight=4;overflow=hidden;rotatable=0;points=[[0,0.5],[1,0.5]];portConstraint=eastwest;whiteSpace=wrap;html=1;" vertex="1" parent="qscbHSwR4hEmLI1HmZ41-111">
          <mxGeometry y="138" width="410" height="26" as="geometry" />
        </mxCell>
        <mxCell id="qscbHSwR4hEmLI1HmZ41-117" value="- extract_clean_text(fitz.Page): str" style="text;strokeColor=none;fillColor=none;align=left;verticalAlign=top;spacingLeft=4;spacingRight=4;overflow=hidden;rotatable=0;points=[[0,0.5],[1,0.5]];portConstraint=eastwest;whiteSpace=wrap;html=1;" vertex="1" parent="qscbHSwR4hEmLI1HmZ41-111">
          <mxGeometry y="164" width="410" height="26" as="geometry" />
        </mxCell>
        <mxCell id="qscbHSwR4hEmLI1HmZ41-118" value="- clean_llm_output(str): str" style="text;strokeColor=none;fillColor=none;align=left;verticalAlign=top;spacingLeft=4;spacingRight=4;overflow=hidden;rotatable=0;points=[[0,0.5],[1,0.5]];portConstraint=eastwest;whiteSpace=wrap;html=1;" vertex="1" parent="qscbHSwR4hEmLI1HmZ41-111">
          <mxGeometry y="190" width="410" height="26" as="geometry" />
        </mxCell>
        <mxCell id="qscbHSwR4hEmLI1HmZ41-119" value="- get_words: list[str]" style="text;strokeColor=none;fillColor=none;align=left;verticalAlign=top;spacingLeft=4;spacingRight=4;overflow=hidden;rotatable=0;points=[[0,0.5],[1,0.5]];portConstraint=eastwest;whiteSpace=wrap;html=1;" vertex="1" parent="qscbHSwR4hEmLI1HmZ41-111">
          <mxGeometry y="216" width="410" height="26" as="geometry" />
        </mxCell>
        <mxCell id="qscbHSwR4hEmLI1HmZ41-124" value="- get_sentences: list[str]" style="text;strokeColor=none;fillColor=none;align=left;verticalAlign=top;spacingLeft=4;spacingRight=4;overflow=hidden;rotatable=0;points=[[0,0.5],[1,0.5]];portConstraint=eastwest;whiteSpace=wrap;html=1;" vertex="1" parent="qscbHSwR4hEmLI1HmZ41-111">
          <mxGeometry y="242" width="410" height="26" as="geometry" />
        </mxCell>
        <mxCell id="qscbHSwR4hEmLI1HmZ41-126" value="- find_missing_important_words(list[str], list[str]): set[str]" style="text;strokeColor=none;fillColor=none;align=left;verticalAlign=top;spacingLeft=4;spacingRight=4;overflow=hidden;rotatable=0;points=[[0,0.5],[1,0.5]];portConstraint=eastwest;whiteSpace=wrap;html=1;" vertex="1" parent="qscbHSwR4hEmLI1HmZ41-111">
          <mxGeometry y="268" width="410" height="26" as="geometry" />
        </mxCell>
        <mxCell id="qscbHSwR4hEmLI1HmZ41-121" value="- calculate_word_overlap(str, str): float" style="text;strokeColor=none;fillColor=none;align=left;verticalAlign=top;spacingLeft=4;spacingRight=4;overflow=hidden;rotatable=0;points=[[0,0.5],[1,0.5]];portConstraint=eastwest;whiteSpace=wrap;html=1;" vertex="1" parent="qscbHSwR4hEmLI1HmZ41-111">
          <mxGeometry y="294" width="410" height="26" as="geometry" />
        </mxCell>
        <mxCell id="qscbHSwR4hEmLI1HmZ41-123" value="- calculate_word_overlap(str, str): float" style="text;strokeColor=none;fillColor=none;align=left;verticalAlign=top;spacingLeft=4;spacingRight=4;overflow=hidden;rotatable=0;points=[[0,0.5],[1,0.5]];portConstraint=eastwest;whiteSpace=wrap;html=1;" vertex="1" parent="qscbHSwR4hEmLI1HmZ41-111">
          <mxGeometry y="320" width="410" height="26" as="geometry" />
        </mxCell>
        <mxCell id="qscbHSwR4hEmLI1HmZ41-122" value="- calculate_sentence_overlap(str, str): float" style="text;strokeColor=none;fillColor=none;align=left;verticalAlign=top;spacingLeft=4;spacingRight=4;overflow=hidden;rotatable=0;points=[[0,0.5],[1,0.5]];portConstraint=eastwest;whiteSpace=wrap;html=1;" vertex="1" parent="qscbHSwR4hEmLI1HmZ41-111">
          <mxGeometry y="346" width="410" height="26" as="geometry" />
        </mxCell>
        <mxCell id="qscbHSwR4hEmLI1HmZ41-125" value="- calculate_semantic_similarity(str, str): float" style="text;strokeColor=none;fillColor=none;align=left;verticalAlign=top;spacingLeft=4;spacingRight=4;overflow=hidden;rotatable=0;points=[[0,0.5],[1,0.5]];portConstraint=eastwest;whiteSpace=wrap;html=1;" vertex="1" parent="qscbHSwR4hEmLI1HmZ41-111">
          <mxGeometry y="372" width="410" height="26" as="geometry" />
        </mxCell>
        <mxCell id="qscbHSwR4hEmLI1HmZ41-127" value="- calculate_extra_content_ratio(str, str): float" style="text;strokeColor=none;fillColor=none;align=left;verticalAlign=top;spacingLeft=4;spacingRight=4;overflow=hidden;rotatable=0;points=[[0,0.5],[1,0.5]];portConstraint=eastwest;whiteSpace=wrap;html=1;" vertex="1" parent="qscbHSwR4hEmLI1HmZ41-111">
          <mxGeometry y="398" width="410" height="26" as="geometry" />
        </mxCell>
        <mxCell id="qscbHSwR4hEmLI1HmZ41-128" value="- calculate_validation_score(float, float, float, float): float" style="text;strokeColor=none;fillColor=none;align=left;verticalAlign=top;spacingLeft=4;spacingRight=4;overflow=hidden;rotatable=0;points=[[0,0.5],[1,0.5]];portConstraint=eastwest;whiteSpace=wrap;html=1;" vertex="1" parent="qscbHSwR4hEmLI1HmZ41-111">
          <mxGeometry y="424" width="410" height="26" as="geometry" />
        </mxCell>
        <mxCell id="qscbHSwR4hEmLI1HmZ41-129" value="- log_validation_result(ValidationResult)" style="text;strokeColor=none;fillColor=none;align=left;verticalAlign=top;spacingLeft=4;spacingRight=4;overflow=hidden;rotatable=0;points=[[0,0.5],[1,0.5]];portConstraint=eastwest;whiteSpace=wrap;html=1;" vertex="1" parent="qscbHSwR4hEmLI1HmZ41-111">
          <mxGeometry y="450" width="410" height="26" as="geometry" />
        </mxCell>
        <mxCell id="qscbHSwR4hEmLI1HmZ41-130" value="+ validate_document(str, List[str]): list[ValidationResult]" style="text;strokeColor=none;fillColor=none;align=left;verticalAlign=top;spacingLeft=4;spacingRight=4;overflow=hidden;rotatable=0;points=[[0,0.5],[1,0.5]];portConstraint=eastwest;whiteSpace=wrap;html=1;" vertex="1" parent="qscbHSwR4hEmLI1HmZ41-111">
          <mxGeometry y="476" width="410" height="26" as="geometry" />
        </mxCell>
        <mxCell id="qscbHSwR4hEmLI1HmZ41-131" value="&lt;b&gt;ConversionResult&lt;/b&gt;" style="swimlane;fontStyle=0;childLayout=stackLayout;horizontal=1;startSize=26;fillColor=none;horizontalStack=0;resizeParent=1;resizeParentMax=0;resizeLast=0;collapsible=1;marginBottom=0;whiteSpace=wrap;html=1;" vertex="1" parent="1">
          <mxGeometry x="200" y="1494" width="330" height="156" as="geometry" />
        </mxCell>
        <mxCell id="qscbHSwR4hEmLI1HmZ41-132" value="+ pages: list[str]" style="text;strokeColor=none;fillColor=none;align=left;verticalAlign=top;spacingLeft=4;spacingRight=4;overflow=hidden;rotatable=0;points=[[0,0.5],[1,0.5]];portConstraint=eastwest;whiteSpace=wrap;html=1;" vertex="1" parent="qscbHSwR4hEmLI1HmZ41-131">
          <mxGeometry y="26" width="330" height="26" as="geometry" />
        </mxCell>
        <mxCell id="qscbHSwR4hEmLI1HmZ41-133" value="+ metadata: dict" style="text;strokeColor=none;fillColor=none;align=left;verticalAlign=top;spacingLeft=4;spacingRight=4;overflow=hidden;rotatable=0;points=[[0,0.5],[1,0.5]];portConstraint=eastwest;whiteSpace=wrap;html=1;" vertex="1" parent="qscbHSwR4hEmLI1HmZ41-131">
          <mxGeometry y="52" width="330" height="26" as="geometry" />
        </mxCell>
        <mxCell id="qscbHSwR4hEmLI1HmZ41-134" value="+ success: bool" style="text;strokeColor=none;fillColor=none;align=left;verticalAlign=top;spacingLeft=4;spacingRight=4;overflow=hidden;rotatable=0;points=[[0,0.5],[1,0.5]];portConstraint=eastwest;whiteSpace=wrap;html=1;" vertex="1" parent="qscbHSwR4hEmLI1HmZ41-131">
          <mxGeometry y="78" width="330" height="26" as="geometry" />
        </mxCell>
        <mxCell id="qscbHSwR4hEmLI1HmZ41-135" value="+ errors: list[str]" style="text;strokeColor=none;fillColor=none;align=left;verticalAlign=top;spacingLeft=4;spacingRight=4;overflow=hidden;rotatable=0;points=[[0,0.5],[1,0.5]];portConstraint=eastwest;whiteSpace=wrap;html=1;" vertex="1" parent="qscbHSwR4hEmLI1HmZ41-131">
          <mxGeometry y="104" width="330" height="26" as="geometry" />
        </mxCell>
        <mxCell id="qscbHSwR4hEmLI1HmZ41-136" value="+ validation_results: Optional[List[ValidationResult]]" style="text;strokeColor=none;fillColor=none;align=left;verticalAlign=top;spacingLeft=4;spacingRight=4;overflow=hidden;rotatable=0;points=[[0,0.5],[1,0.5]];portConstraint=eastwest;whiteSpace=wrap;html=1;" vertex="1" parent="qscbHSwR4hEmLI1HmZ41-131">
          <mxGeometry y="130" width="330" height="26" as="geometry" />
        </mxCell>
        <mxCell id="qscbHSwR4hEmLI1HmZ41-143" value="VisionProcessor" style="swimlane;fontStyle=1;align=center;verticalAlign=top;childLayout=stackLayout;horizontal=1;startSize=26;horizontalStack=0;resizeParent=1;resizeParentMax=0;resizeLast=0;collapsible=1;marginBottom=0;whiteSpace=wrap;html=1;" vertex="1" parent="1">
          <mxGeometry x="570" y="1160" width="410" height="216" as="geometry" />
        </mxCell>
        <mxCell id="qscbHSwR4hEmLI1HmZ41-144" value="- logger: Logger" style="text;strokeColor=none;fillColor=none;align=left;verticalAlign=top;spacingLeft=4;spacingRight=4;overflow=hidden;rotatable=0;points=[[0,0.5],[1,0.5]];portConstraint=eastwest;whiteSpace=wrap;html=1;" vertex="1" parent="qscbHSwR4hEmLI1HmZ41-143">
          <mxGeometry y="26" width="410" height="26" as="geometry" />
        </mxCell>
        <mxCell id="qscbHSwR4hEmLI1HmZ41-145" value="- model_name: str" style="text;strokeColor=none;fillColor=none;align=left;verticalAlign=top;spacingLeft=4;spacingRight=4;overflow=hidden;rotatable=0;points=[[0,0.5],[1,0.5]];portConstraint=eastwest;whiteSpace=wrap;html=1;" vertex="1" parent="qscbHSwR4hEmLI1HmZ41-143">
          <mxGeometry y="52" width="410" height="26" as="geometry" />
        </mxCell>
        <mxCell id="qscbHSwR4hEmLI1HmZ41-146" value="- base_url: str" style="text;strokeColor=none;fillColor=none;align=left;verticalAlign=top;spacingLeft=4;spacingRight=4;overflow=hidden;rotatable=0;points=[[0,0.5],[1,0.5]];portConstraint=eastwest;whiteSpace=wrap;html=1;" vertex="1" parent="qscbHSwR4hEmLI1HmZ41-143">
          <mxGeometry y="78" width="410" height="26" as="geometry" />
        </mxCell>
        <mxCell id="qscbHSwR4hEmLI1HmZ41-147" value="- temperature: float" style="text;strokeColor=none;fillColor=none;align=left;verticalAlign=top;spacingLeft=4;spacingRight=4;overflow=hidden;rotatable=0;points=[[0,0.5],[1,0.5]];portConstraint=eastwest;whiteSpace=wrap;html=1;" vertex="1" parent="qscbHSwR4hEmLI1HmZ41-143">
          <mxGeometry y="104" width="410" height="26" as="geometry" />
        </mxCell>
        <mxCell id="qscbHSwR4hEmLI1HmZ41-163" value="- chatmodel: ChatOllama" style="text;strokeColor=none;fillColor=none;align=left;verticalAlign=top;spacingLeft=4;spacingRight=4;overflow=hidden;rotatable=0;points=[[0,0.5],[1,0.5]];portConstraint=eastwest;whiteSpace=wrap;html=1;" vertex="1" parent="qscbHSwR4hEmLI1HmZ41-143">
          <mxGeometry y="130" width="410" height="26" as="geometry" />
        </mxCell>
        <mxCell id="qscbHSwR4hEmLI1HmZ41-148" value="" style="line;strokeWidth=1;fillColor=none;align=left;verticalAlign=middle;spacingTop=-1;spacingLeft=3;spacingRight=3;rotatable=0;labelPosition=right;points=[];portConstraint=eastwest;strokeColor=inherit;" vertex="1" parent="qscbHSwR4hEmLI1HmZ41-143">
          <mxGeometry y="156" width="410" height="8" as="geometry" />
        </mxCell>
        <mxCell id="qscbHSwR4hEmLI1HmZ41-149" value="- init_ollama(str, str): ChatOllama" style="text;strokeColor=none;fillColor=none;align=left;verticalAlign=top;spacingLeft=4;spacingRight=4;overflow=hidden;rotatable=0;points=[[0,0.5],[1,0.5]];portConstraint=eastwest;whiteSpace=wrap;html=1;" vertex="1" parent="qscbHSwR4hEmLI1HmZ41-143">
          <mxGeometry y="164" width="410" height="26" as="geometry" />
        </mxCell>
        <mxCell id="qscbHSwR4hEmLI1HmZ41-161" value="+ process_page(str): str" style="text;strokeColor=none;fillColor=none;align=left;verticalAlign=top;spacingLeft=4;spacingRight=4;overflow=hidden;rotatable=0;points=[[0,0.5],[1,0.5]];portConstraint=eastwest;whiteSpace=wrap;html=1;" vertex="1" parent="qscbHSwR4hEmLI1HmZ41-143">
          <mxGeometry y="190" width="410" height="26" as="geometry" />
        </mxCell>
        <mxCell id="qscbHSwR4hEmLI1HmZ41-164" value="PDFToMarkdownPipeline" style="swimlane;fontStyle=1;align=center;verticalAlign=top;childLayout=stackLayout;horizontal=1;startSize=26;horizontalStack=0;resizeParent=1;resizeParentMax=0;resizeLast=0;collapsible=1;marginBottom=0;whiteSpace=wrap;html=1;" vertex="1" parent="1">
          <mxGeometry x="570" y="1400" width="410" height="242" as="geometry" />
        </mxCell>
        <mxCell id="qscbHSwR4hEmLI1HmZ41-165" value="- logger: Logger" style="text;strokeColor=none;fillColor=none;align=left;verticalAlign=top;spacingLeft=4;spacingRight=4;overflow=hidden;rotatable=0;points=[[0,0.5],[1,0.5]];portConstraint=eastwest;whiteSpace=wrap;html=1;" vertex="1" parent="qscbHSwR4hEmLI1HmZ41-164">
          <mxGeometry y="26" width="410" height="26" as="geometry" />
        </mxCell>
        <mxCell id="qscbHSwR4hEmLI1HmZ41-166" value="- dpi: int" style="text;strokeColor=none;fillColor=none;align=left;verticalAlign=top;spacingLeft=4;spacingRight=4;overflow=hidden;rotatable=0;points=[[0,0.5],[1,0.5]];portConstraint=eastwest;whiteSpace=wrap;html=1;" vertex="1" parent="qscbHSwR4hEmLI1HmZ41-164">
          <mxGeometry y="52" width="410" height="26" as="geometry" />
        </mxCell>
        <mxCell id="qscbHSwR4hEmLI1HmZ41-167" value="- enable_validation: bool" style="text;strokeColor=none;fillColor=none;align=left;verticalAlign=top;spacingLeft=4;spacingRight=4;overflow=hidden;rotatable=0;points=[[0,0.5],[1,0.5]];portConstraint=eastwest;whiteSpace=wrap;html=1;" vertex="1" parent="qscbHSwR4hEmLI1HmZ41-164">
          <mxGeometry y="78" width="410" height="26" as="geometry" />
        </mxCell>
        <mxCell id="qscbHSwR4hEmLI1HmZ41-169" value="- vision_processor: VisionProcessor" style="text;strokeColor=none;fillColor=none;align=left;verticalAlign=top;spacingLeft=4;spacingRight=4;overflow=hidden;rotatable=0;points=[[0,0.5],[1,0.5]];portConstraint=eastwest;whiteSpace=wrap;html=1;" vertex="1" parent="qscbHSwR4hEmLI1HmZ41-164">
          <mxGeometry y="104" width="410" height="26" as="geometry" />
        </mxCell>
        <mxCell id="qscbHSwR4hEmLI1HmZ41-173" value="- validator: TextValidator" style="text;strokeColor=none;fillColor=none;align=left;verticalAlign=top;spacingLeft=4;spacingRight=4;overflow=hidden;rotatable=0;points=[[0,0.5],[1,0.5]];portConstraint=eastwest;whiteSpace=wrap;html=1;" vertex="1" parent="qscbHSwR4hEmLI1HmZ41-164">
          <mxGeometry y="130" width="410" height="26" as="geometry" />
        </mxCell>
        <mxCell id="qscbHSwR4hEmLI1HmZ41-174" value="- metadata: dict" style="text;strokeColor=none;fillColor=none;align=left;verticalAlign=top;spacingLeft=4;spacingRight=4;overflow=hidden;rotatable=0;points=[[0,0.5],[1,0.5]];portConstraint=eastwest;whiteSpace=wrap;html=1;" vertex="1" parent="qscbHSwR4hEmLI1HmZ41-164">
          <mxGeometry y="156" width="410" height="26" as="geometry" />
        </mxCell>
        <mxCell id="qscbHSwR4hEmLI1HmZ41-170" value="" style="line;strokeWidth=1;fillColor=none;align=left;verticalAlign=middle;spacingTop=-1;spacingLeft=3;spacingRight=3;rotatable=0;labelPosition=right;points=[];portConstraint=eastwest;strokeColor=inherit;" vertex="1" parent="qscbHSwR4hEmLI1HmZ41-164">
          <mxGeometry y="182" width="410" height="8" as="geometry" />
        </mxCell>
        <mxCell id="qscbHSwR4hEmLI1HmZ41-171" value="+ convert_pdf(str): ConversionResult" style="text;strokeColor=none;fillColor=none;align=left;verticalAlign=top;spacingLeft=4;spacingRight=4;overflow=hidden;rotatable=0;points=[[0,0.5],[1,0.5]];portConstraint=eastwest;whiteSpace=wrap;html=1;" vertex="1" parent="qscbHSwR4hEmLI1HmZ41-164">
          <mxGeometry y="190" width="410" height="26" as="geometry" />
        </mxCell>
        <mxCell id="qscbHSwR4hEmLI1HmZ41-172" value="+ save_results(ConversionResult, str): list[pathlib.Path]" style="text;strokeColor=none;fillColor=none;align=left;verticalAlign=top;spacingLeft=4;spacingRight=4;overflow=hidden;rotatable=0;points=[[0,0.5],[1,0.5]];portConstraint=eastwest;whiteSpace=wrap;html=1;" vertex="1" parent="qscbHSwR4hEmLI1HmZ41-164">
          <mxGeometry y="216" width="410" height="26" as="geometry" />
        </mxCell>
        <mxCell id="qscbHSwR4hEmLI1HmZ41-175" value="&lt;b&gt;SearchQuery(pydantic.BaseModel)&lt;/b&gt;" style="swimlane;fontStyle=0;childLayout=stackLayout;horizontal=1;startSize=26;fillColor=none;horizontalStack=0;resizeParent=1;resizeParentMax=0;resizeLast=0;collapsible=1;marginBottom=0;whiteSpace=wrap;html=1;" vertex="1" parent="1">
          <mxGeometry x="760" y="80" width="330" height="52" as="geometry" />
        </mxCell>
        <mxCell id="qscbHSwR4hEmLI1HmZ41-180" value="+ query: str" style="text;strokeColor=none;fillColor=none;align=left;verticalAlign=top;spacingLeft=4;spacingRight=4;overflow=hidden;rotatable=0;points=[[0,0.5],[1,0.5]];portConstraint=eastwest;whiteSpace=wrap;html=1;" vertex="1" parent="qscbHSwR4hEmLI1HmZ41-175">
          <mxGeometry y="26" width="330" height="26" as="geometry" />
        </mxCell>
        <mxCell id="qscbHSwR4hEmLI1HmZ41-181" value="&lt;b&gt;Outlinepydantic.BaseModel)&lt;/b&gt;" style="swimlane;fontStyle=0;childLayout=stackLayout;horizontal=1;startSize=26;fillColor=none;horizontalStack=0;resizeParent=1;resizeParentMax=0;resizeLast=0;collapsible=1;marginBottom=0;whiteSpace=wrap;html=1;" vertex="1" parent="1">
          <mxGeometry x="760" y="164" width="330" height="52" as="geometry" />
        </mxCell>
        <mxCell id="qscbHSwR4hEmLI1HmZ41-182" value="+ entries: list[str]" style="text;strokeColor=none;fillColor=none;align=left;verticalAlign=top;spacingLeft=4;spacingRight=4;overflow=hidden;rotatable=0;points=[[0,0.5],[1,0.5]];portConstraint=eastwest;whiteSpace=wrap;html=1;" vertex="1" parent="qscbHSwR4hEmLI1HmZ41-181">
          <mxGeometry y="26" width="330" height="26" as="geometry" />
        </mxCell>
      </root>
    </mxGraphModel>
  </diagram>
  <diagram id="xis6Z_P0rEMPCl-cEYCF" name="Configuration">
    <mxGraphModel dx="1418" dy="752" grid="1" gridSize="10" guides="1" tooltips="1" connect="1" arrows="1" fold="1" page="1" pageScale="1" pageWidth="850" pageHeight="1100" math="0" shadow="0">
      <root>
        <mxCell id="0" />
        <mxCell id="1" parent="0" />
        <mxCell id="-F2J5X8iYWO8k5TL9b_8-1" value="Configuration" style="swimlane;fontStyle=1;align=center;verticalAlign=top;childLayout=stackLayout;horizontal=1;startSize=26;horizontalStack=0;resizeParent=1;resizeParentMax=0;resizeLast=0;collapsible=1;marginBottom=0;whiteSpace=wrap;html=1;" vertex="1" parent="1">
          <mxGeometry x="280" y="160" width="310" height="336" as="geometry" />
        </mxCell>
        <mxCell id="-F2J5X8iYWO8k5TL9b_8-2" value="+ embedding_model: str" style="text;strokeColor=none;fillColor=none;align=left;verticalAlign=top;spacingLeft=4;spacingRight=4;overflow=hidden;rotatable=0;points=[[0,0.5],[1,0.5]];portConstraint=eastwest;whiteSpace=wrap;html=1;" vertex="1" parent="-F2J5X8iYWO8k5TL9b_8-1">
          <mxGeometry y="26" width="310" height="28" as="geometry" />
        </mxCell>
        <mxCell id="-F2J5X8iYWO8k5TL9b_8-3" value="+ number_of_parts: int" style="text;strokeColor=none;fillColor=none;align=left;verticalAlign=top;spacingLeft=4;spacingRight=4;overflow=hidden;rotatable=0;points=[[0,0.5],[1,0.5]];portConstraint=eastwest;whiteSpace=wrap;html=1;" vertex="1" parent="-F2J5X8iYWO8k5TL9b_8-1">
          <mxGeometry y="54" width="310" height="26" as="geometry" />
        </mxCell>
        <mxCell id="-F2J5X8iYWO8k5TL9b_8-4" value="+ ocr: bool" style="text;strokeColor=none;fillColor=none;align=left;verticalAlign=top;spacingLeft=4;spacingRight=4;overflow=hidden;rotatable=0;points=[[0,0.5],[1,0.5]];portConstraint=eastwest;whiteSpace=wrap;html=1;" vertex="1" parent="-F2J5X8iYWO8k5TL9b_8-1">
          <mxGeometry y="80" width="310" height="28" as="geometry" />
        </mxCell>
        <mxCell id="-F2J5X8iYWO8k5TL9b_8-5" value="+ ollama_host: str" style="text;strokeColor=none;fillColor=none;align=left;verticalAlign=top;spacingLeft=4;spacingRight=4;overflow=hidden;rotatable=0;points=[[0,0.5],[1,0.5]];portConstraint=eastwest;whiteSpace=wrap;html=1;" vertex="1" parent="-F2J5X8iYWO8k5TL9b_8-1">
          <mxGeometry y="108" width="310" height="28" as="geometry" />
        </mxCell>
        <mxCell id="-F2J5X8iYWO8k5TL9b_8-6" value="+ query_model: str" style="text;strokeColor=none;fillColor=none;align=left;verticalAlign=top;spacingLeft=4;spacingRight=4;overflow=hidden;rotatable=0;points=[[0,0.5],[1,0.5]];portConstraint=eastwest;whiteSpace=wrap;html=1;" vertex="1" parent="-F2J5X8iYWO8k5TL9b_8-1">
          <mxGeometry y="136" width="310" height="28" as="geometry" />
        </mxCell>
        <mxCell id="-F2J5X8iYWO8k5TL9b_8-7" value="+ response_model: str" style="text;strokeColor=none;fillColor=none;align=left;verticalAlign=top;spacingLeft=4;spacingRight=4;overflow=hidden;rotatable=0;points=[[0,0.5],[1,0.5]];portConstraint=eastwest;whiteSpace=wrap;html=1;" vertex="1" parent="-F2J5X8iYWO8k5TL9b_8-1">
          <mxGeometry y="164" width="310" height="28" as="geometry" />
        </mxCell>
        <mxCell id="-F2J5X8iYWO8k5TL9b_8-8" value="+ report_model: str" style="text;strokeColor=none;fillColor=none;align=left;verticalAlign=top;spacingLeft=4;spacingRight=4;overflow=hidden;rotatable=0;points=[[0,0.5],[1,0.5]];portConstraint=eastwest;whiteSpace=wrap;html=1;" vertex="1" parent="-F2J5X8iYWO8k5TL9b_8-1">
          <mxGeometry y="192" width="310" height="28" as="geometry" />
        </mxCell>
        <mxCell id="-F2J5X8iYWO8k5TL9b_8-9" value="+ vision_model: str" style="text;strokeColor=none;fillColor=none;align=left;verticalAlign=top;spacingLeft=4;spacingRight=4;overflow=hidden;rotatable=0;points=[[0,0.5],[1,0.5]];portConstraint=eastwest;whiteSpace=wrap;html=1;" vertex="1" parent="-F2J5X8iYWO8k5TL9b_8-1">
          <mxGeometry y="220" width="310" height="28" as="geometry" />
        </mxCell>
        <mxCell id="-F2J5X8iYWO8k5TL9b_8-10" value="+ writing_style: Literal[&quot;technical&quot; , &quot;general&quot;]" style="text;strokeColor=none;fillColor=none;align=left;verticalAlign=top;spacingLeft=4;spacingRight=4;overflow=hidden;rotatable=0;points=[[0,0.5],[1,0.5]];portConstraint=eastwest;whiteSpace=wrap;html=1;" vertex="1" parent="-F2J5X8iYWO8k5TL9b_8-1">
          <mxGeometry y="248" width="310" height="28" as="geometry" />
        </mxCell>
        <mxCell id="-F2J5X8iYWO8k5TL9b_8-11" value="" style="line;strokeWidth=1;fillColor=none;align=left;verticalAlign=middle;spacingTop=-1;spacingLeft=3;spacingRight=3;rotatable=0;labelPosition=right;points=[];portConstraint=eastwest;strokeColor=inherit;" vertex="1" parent="-F2J5X8iYWO8k5TL9b_8-1">
          <mxGeometry y="276" width="310" height="8" as="geometry" />
        </mxCell>
        <mxCell id="-F2J5X8iYWO8k5TL9b_8-12" value="+ asdict(): dict[str, Any]" style="text;strokeColor=none;fillColor=none;align=left;verticalAlign=top;spacingLeft=4;spacingRight=4;overflow=hidden;rotatable=0;points=[[0,0.5],[1,0.5]];portConstraint=eastwest;whiteSpace=wrap;html=1;" vertex="1" parent="-F2J5X8iYWO8k5TL9b_8-1">
          <mxGeometry y="284" width="310" height="26" as="geometry" />
        </mxCell>
        <mxCell id="-F2J5X8iYWO8k5TL9b_8-13" value="+ from_runnable_config(RunnableConfig): Configuration" style="text;strokeColor=none;fillColor=none;align=left;verticalAlign=top;spacingLeft=4;spacingRight=4;overflow=hidden;rotatable=0;points=[[0,0.5],[1,0.5]];portConstraint=eastwest;whiteSpace=wrap;html=1;" vertex="1" parent="-F2J5X8iYWO8k5TL9b_8-1">
          <mxGeometry y="310" width="310" height="26" as="geometry" />
        </mxCell>
      </root>
    </mxGraphModel>
  </diagram>
  <diagram id="-ne83yE_crOojEgKm4fa" name="States">
    <mxGraphModel dx="1418" dy="752" grid="1" gridSize="10" guides="1" tooltips="1" connect="1" arrows="1" fold="1" page="1" pageScale="1" pageWidth="850" pageHeight="1100" math="0" shadow="0">
      <root>
        <mxCell id="0" />
        <mxCell id="1" parent="0" />
        <mxCell id="uKkqZR2r2ZW_wVyzu8Ey-1" value="&lt;b&gt;InputState&lt;/b&gt;" style="swimlane;fontStyle=0;childLayout=stackLayout;horizontal=1;startSize=26;fillColor=none;horizontalStack=0;resizeParent=1;resizeParentMax=0;resizeLast=0;collapsible=1;marginBottom=0;whiteSpace=wrap;html=1;" vertex="1" parent="1">
          <mxGeometry x="260" y="100" width="400" height="52" as="geometry" />
        </mxCell>
        <mxCell id="uKkqZR2r2ZW_wVyzu8Ey-2" value="+ messages: Annotated[Sequence[AnyMessage], add_messages]" style="text;strokeColor=none;fillColor=none;align=left;verticalAlign=top;spacingLeft=4;spacingRight=4;overflow=hidden;rotatable=0;points=[[0,0.5],[1,0.5]];portConstraint=eastwest;whiteSpace=wrap;html=1;" vertex="1" parent="uKkqZR2r2ZW_wVyzu8Ey-1">
          <mxGeometry y="26" width="400" height="26" as="geometry" />
        </mxCell>
        <mxCell id="uKkqZR2r2ZW_wVyzu8Ey-3" style="edgeStyle=orthogonalEdgeStyle;rounded=0;orthogonalLoop=1;jettySize=auto;html=1;entryX=0.5;entryY=1;entryDx=0;entryDy=0;endArrow=block;endFill=0;" edge="1" parent="1" source="uKkqZR2r2ZW_wVyzu8Ey-4" target="uKkqZR2r2ZW_wVyzu8Ey-1">
          <mxGeometry relative="1" as="geometry" />
        </mxCell>
        <mxCell id="uKkqZR2r2ZW_wVyzu8Ey-4" value="&lt;b&gt;RetrievalState&lt;/b&gt;" style="swimlane;fontStyle=0;childLayout=stackLayout;horizontal=1;startSize=26;fillColor=none;horizontalStack=0;resizeParent=1;resizeParentMax=0;resizeLast=0;collapsible=1;marginBottom=0;whiteSpace=wrap;html=1;" vertex="1" parent="1">
          <mxGeometry x="120" y="190" width="330" height="104" as="geometry" />
        </mxCell>
        <mxCell id="uKkqZR2r2ZW_wVyzu8Ey-5" value="+ query: str" style="text;strokeColor=none;fillColor=none;align=left;verticalAlign=top;spacingLeft=4;spacingRight=4;overflow=hidden;rotatable=0;points=[[0,0.5],[1,0.5]];portConstraint=eastwest;whiteSpace=wrap;html=1;" vertex="1" parent="uKkqZR2r2ZW_wVyzu8Ey-4">
          <mxGeometry y="26" width="330" height="26" as="geometry" />
        </mxCell>
        <mxCell id="uKkqZR2r2ZW_wVyzu8Ey-6" value="+ retrieved_docs: list[langchain_core.documents.Document]" style="text;strokeColor=none;fillColor=none;align=left;verticalAlign=top;spacingLeft=4;spacingRight=4;overflow=hidden;rotatable=0;points=[[0,0.5],[1,0.5]];portConstraint=eastwest;whiteSpace=wrap;html=1;" vertex="1" parent="uKkqZR2r2ZW_wVyzu8Ey-4">
          <mxGeometry y="52" width="330" height="26" as="geometry" />
        </mxCell>
        <mxCell id="uKkqZR2r2ZW_wVyzu8Ey-7" value="+ summary: str" style="text;strokeColor=none;fillColor=none;align=left;verticalAlign=top;spacingLeft=4;spacingRight=4;overflow=hidden;rotatable=0;points=[[0,0.5],[1,0.5]];portConstraint=eastwest;whiteSpace=wrap;html=1;" vertex="1" parent="uKkqZR2r2ZW_wVyzu8Ey-4">
          <mxGeometry y="78" width="330" height="26" as="geometry" />
        </mxCell>
        <mxCell id="uKkqZR2r2ZW_wVyzu8Ey-8" style="edgeStyle=orthogonalEdgeStyle;rounded=0;orthogonalLoop=1;jettySize=auto;html=1;endArrow=block;endFill=0;" edge="1" parent="1" source="uKkqZR2r2ZW_wVyzu8Ey-9" target="uKkqZR2r2ZW_wVyzu8Ey-1">
          <mxGeometry relative="1" as="geometry" />
        </mxCell>
        <mxCell id="uKkqZR2r2ZW_wVyzu8Ey-9" value="&lt;b&gt;ReportState&lt;/b&gt;" style="swimlane;fontStyle=0;childLayout=stackLayout;horizontal=1;startSize=26;fillColor=none;horizontalStack=0;resizeParent=1;resizeParentMax=0;resizeLast=0;collapsible=1;marginBottom=0;whiteSpace=wrap;html=1;" vertex="1" parent="1">
          <mxGeometry x="470" y="190" width="330" height="182" as="geometry" />
        </mxCell>
        <mxCell id="uKkqZR2r2ZW_wVyzu8Ey-10" value="+ current_section_index: str" style="text;strokeColor=none;fillColor=none;align=left;verticalAlign=top;spacingLeft=4;spacingRight=4;overflow=hidden;rotatable=0;points=[[0,0.5],[1,0.5]];portConstraint=eastwest;whiteSpace=wrap;html=1;" vertex="1" parent="uKkqZR2r2ZW_wVyzu8Ey-9">
          <mxGeometry y="26" width="330" height="26" as="geometry" />
        </mxCell>
        <mxCell id="uKkqZR2r2ZW_wVyzu8Ey-11" value="+ raw_section: str" style="text;strokeColor=none;fillColor=none;align=left;verticalAlign=top;spacingLeft=4;spacingRight=4;overflow=hidden;rotatable=0;points=[[0,0.5],[1,0.5]];portConstraint=eastwest;whiteSpace=wrap;html=1;" vertex="1" parent="uKkqZR2r2ZW_wVyzu8Ey-9">
          <mxGeometry y="52" width="330" height="26" as="geometry" />
        </mxCell>
        <mxCell id="uKkqZR2r2ZW_wVyzu8Ey-12" value="+ report: Annotated[list[dict[str, str]], add_section]" style="text;strokeColor=none;fillColor=none;align=left;verticalAlign=top;spacingLeft=4;spacingRight=4;overflow=hidden;rotatable=0;points=[[0,0.5],[1,0.5]];portConstraint=eastwest;whiteSpace=wrap;html=1;" vertex="1" parent="uKkqZR2r2ZW_wVyzu8Ey-9">
          <mxGeometry y="78" width="330" height="26" as="geometry" />
        </mxCell>
        <mxCell id="uKkqZR2r2ZW_wVyzu8Ey-13" value="+ report_header: str" style="text;strokeColor=none;fillColor=none;align=left;verticalAlign=top;spacingLeft=4;spacingRight=4;overflow=hidden;rotatable=0;points=[[0,0.5],[1,0.5]];portConstraint=eastwest;whiteSpace=wrap;html=1;" vertex="1" parent="uKkqZR2r2ZW_wVyzu8Ey-9">
          <mxGeometry y="104" width="330" height="26" as="geometry" />
        </mxCell>
        <mxCell id="uKkqZR2r2ZW_wVyzu8Ey-14" value="+ retrieved_docs: list[langchain_core.documents.Document]" style="text;strokeColor=none;fillColor=none;align=left;verticalAlign=top;spacingLeft=4;spacingRight=4;overflow=hidden;rotatable=0;points=[[0,0.5],[1,0.5]];portConstraint=eastwest;whiteSpace=wrap;html=1;" vertex="1" parent="uKkqZR2r2ZW_wVyzu8Ey-9">
          <mxGeometry y="130" width="330" height="26" as="geometry" />
        </mxCell>
        <mxCell id="uKkqZR2r2ZW_wVyzu8Ey-15" value="+ outlines: list[dict[str, str]]" style="text;strokeColor=none;fillColor=none;align=left;verticalAlign=top;spacingLeft=4;spacingRight=4;overflow=hidden;rotatable=0;points=[[0,0.5],[1,0.5]];portConstraint=eastwest;whiteSpace=wrap;html=1;" vertex="1" parent="uKkqZR2r2ZW_wVyzu8Ey-9">
          <mxGeometry y="156" width="330" height="26" as="geometry" />
        </mxCell>
        <mxCell id="uKkqZR2r2ZW_wVyzu8Ey-16" value="&lt;b&gt;IndexInputState&lt;/b&gt;" style="swimlane;fontStyle=0;childLayout=stackLayout;horizontal=1;startSize=26;fillColor=none;horizontalStack=0;resizeParent=1;resizeParentMax=0;resizeLast=0;collapsible=1;marginBottom=0;whiteSpace=wrap;html=1;" vertex="1" parent="1">
          <mxGeometry x="325" y="400" width="270" height="52" as="geometry" />
        </mxCell>
        <mxCell id="uKkqZR2r2ZW_wVyzu8Ey-17" value="+ path: str" style="text;strokeColor=none;fillColor=none;align=left;verticalAlign=top;spacingLeft=4;spacingRight=4;overflow=hidden;rotatable=0;points=[[0,0.5],[1,0.5]];portConstraint=eastwest;whiteSpace=wrap;html=1;" vertex="1" parent="uKkqZR2r2ZW_wVyzu8Ey-16">
          <mxGeometry y="26" width="270" height="26" as="geometry" />
        </mxCell>
        <mxCell id="uKkqZR2r2ZW_wVyzu8Ey-18" style="edgeStyle=orthogonalEdgeStyle;rounded=0;orthogonalLoop=1;jettySize=auto;html=1;entryX=0.5;entryY=1;entryDx=0;entryDy=0;endArrow=block;endFill=0;" edge="1" parent="1" source="uKkqZR2r2ZW_wVyzu8Ey-19" target="uKkqZR2r2ZW_wVyzu8Ey-16">
          <mxGeometry relative="1" as="geometry" />
        </mxCell>
        <mxCell id="uKkqZR2r2ZW_wVyzu8Ey-19" value="&lt;b&gt;IndexState&lt;/b&gt;" style="swimlane;fontStyle=0;childLayout=stackLayout;horizontal=1;startSize=26;fillColor=none;horizontalStack=0;resizeParent=1;resizeParentMax=0;resizeLast=0;collapsible=1;marginBottom=0;whiteSpace=wrap;html=1;" vertex="1" parent="1">
          <mxGeometry x="230" y="480" width="460" height="52" as="geometry" />
        </mxCell>
        <mxCell id="uKkqZR2r2ZW_wVyzu8Ey-20" value="+ docs: Annotated[Sequence[langchain_core.documents.Document], reduce_docs]" style="text;strokeColor=none;fillColor=none;align=left;verticalAlign=top;spacingLeft=4;spacingRight=4;overflow=hidden;rotatable=0;points=[[0,0.5],[1,0.5]];portConstraint=eastwest;whiteSpace=wrap;html=1;" vertex="1" parent="uKkqZR2r2ZW_wVyzu8Ey-19">
          <mxGeometry y="26" width="460" height="26" as="geometry" />
        </mxCell>
      </root>
    </mxGraphModel>
  </diagram>
  <diagram id="FlMJurXioLHNfE-JEpiK" name="StructuredOutputs">
    <mxGraphModel dx="1418" dy="752" grid="1" gridSize="10" guides="1" tooltips="1" connect="1" arrows="1" fold="1" page="1" pageScale="1" pageWidth="850" pageHeight="1100" math="0" shadow="0">
      <root>
        <mxCell id="0" />
        <mxCell id="1" parent="0" />
        <mxCell id="k0wrK2sUr9B9HTrcDtAW-1" value="&lt;b&gt;SearchQuery(pydantic.BaseModel)&lt;/b&gt;" style="swimlane;fontStyle=0;childLayout=stackLayout;horizontal=1;startSize=26;fillColor=none;horizontalStack=0;resizeParent=1;resizeParentMax=0;resizeLast=0;collapsible=1;marginBottom=0;whiteSpace=wrap;html=1;" vertex="1" parent="1">
          <mxGeometry x="80" y="40" width="330" height="52" as="geometry" />
        </mxCell>
        <mxCell id="k0wrK2sUr9B9HTrcDtAW-2" value="+ query: str" style="text;strokeColor=none;fillColor=none;align=left;verticalAlign=top;spacingLeft=4;spacingRight=4;overflow=hidden;rotatable=0;points=[[0,0.5],[1,0.5]];portConstraint=eastwest;whiteSpace=wrap;html=1;" vertex="1" parent="k0wrK2sUr9B9HTrcDtAW-1">
          <mxGeometry y="26" width="330" height="26" as="geometry" />
        </mxCell>
        <mxCell id="k0wrK2sUr9B9HTrcDtAW-3" value="&lt;b&gt;Outlinepydantic.BaseModel)&lt;/b&gt;" style="swimlane;fontStyle=0;childLayout=stackLayout;horizontal=1;startSize=26;fillColor=none;horizontalStack=0;resizeParent=1;resizeParentMax=0;resizeLast=0;collapsible=1;marginBottom=0;whiteSpace=wrap;html=1;" vertex="1" parent="1">
          <mxGeometry x="80" y="124" width="330" height="52" as="geometry" />
        </mxCell>
        <mxCell id="k0wrK2sUr9B9HTrcDtAW-4" value="+ entries: list[str]" style="text;strokeColor=none;fillColor=none;align=left;verticalAlign=top;spacingLeft=4;spacingRight=4;overflow=hidden;rotatable=0;points=[[0,0.5],[1,0.5]];portConstraint=eastwest;whiteSpace=wrap;html=1;" vertex="1" parent="k0wrK2sUr9B9HTrcDtAW-3">
          <mxGeometry y="26" width="330" height="26" as="geometry" />
        </mxCell>
      </root>
    </mxGraphModel>
  </diagram>
  <diagram id="Kq0hE4z_Pb2ESuYVotUg" name="Agents">
    <mxGraphModel dx="1418" dy="752" grid="1" gridSize="10" guides="1" tooltips="1" connect="1" arrows="1" fold="1" page="1" pageScale="1" pageWidth="850" pageHeight="1100" math="0" shadow="0">
      <root>
        <mxCell id="0" />
        <mxCell id="1" parent="0" />
        <mxCell id="QsYWbDglGBnLHlJFrCsR-1" value="BaseAgent" style="swimlane;fontStyle=1;align=center;verticalAlign=top;childLayout=stackLayout;horizontal=1;startSize=26;horizontalStack=0;resizeParent=1;resizeParentMax=0;resizeLast=0;collapsible=1;marginBottom=0;whiteSpace=wrap;html=1;" vertex="1" parent="1">
          <mxGeometry x="335" y="40" width="260" height="58" as="geometry" />
        </mxCell>
        <mxCell id="QsYWbDglGBnLHlJFrCsR-2" value="- graph: langgraph.state.CompiledStateGraph" style="text;strokeColor=none;fillColor=none;align=left;verticalAlign=top;spacingLeft=4;spacingRight=4;overflow=hidden;rotatable=0;points=[[0,0.5],[1,0.5]];portConstraint=eastwest;whiteSpace=wrap;html=1;" vertex="1" parent="QsYWbDglGBnLHlJFrCsR-1">
          <mxGeometry y="26" width="260" height="24" as="geometry" />
        </mxCell>
        <mxCell id="QsYWbDglGBnLHlJFrCsR-3" value="" style="line;strokeWidth=1;fillColor=none;align=left;verticalAlign=middle;spacingTop=-1;spacingLeft=3;spacingRight=3;rotatable=0;labelPosition=right;points=[];portConstraint=eastwest;strokeColor=inherit;" vertex="1" parent="QsYWbDglGBnLHlJFrCsR-1">
          <mxGeometry y="50" width="260" height="8" as="geometry" />
        </mxCell>
        <mxCell id="QsYWbDglGBnLHlJFrCsR-4" style="edgeStyle=orthogonalEdgeStyle;rounded=0;orthogonalLoop=1;jettySize=auto;html=1;entryX=0.5;entryY=1;entryDx=0;entryDy=0;endArrow=block;endFill=0;exitX=0.5;exitY=0;exitDx=0;exitDy=0;" edge="1" parent="1" source="QsYWbDglGBnLHlJFrCsR-5" target="QsYWbDglGBnLHlJFrCsR-1">
          <mxGeometry relative="1" as="geometry">
            <Array as="points">
              <mxPoint x="305" y="140" />
              <mxPoint x="465" y="140" />
            </Array>
          </mxGeometry>
        </mxCell>
        <mxCell id="QsYWbDglGBnLHlJFrCsR-5" value="RetrievalAgent" style="swimlane;fontStyle=1;align=center;verticalAlign=top;childLayout=stackLayout;horizontal=1;startSize=26;horizontalStack=0;resizeParent=1;resizeParentMax=0;resizeLast=0;collapsible=1;marginBottom=0;whiteSpace=wrap;html=1;" vertex="1" parent="1">
          <mxGeometry x="185" y="160" width="240" height="110" as="geometry" />
        </mxCell>
        <mxCell id="QsYWbDglGBnLHlJFrCsR-6" value="" style="line;strokeWidth=1;fillColor=none;align=left;verticalAlign=middle;spacingTop=-1;spacingLeft=3;spacingRight=3;rotatable=0;labelPosition=right;points=[];portConstraint=eastwest;strokeColor=inherit;" vertex="1" parent="QsYWbDglGBnLHlJFrCsR-5">
          <mxGeometry y="26" width="240" height="8" as="geometry" />
        </mxCell>
        <mxCell id="QsYWbDglGBnLHlJFrCsR-7" value="&lt;div&gt;+ get_message(&amp;nbsp;&lt;span style=&quot;background-color: transparent; color: light-dark(rgb(0, 0, 0), rgb(255, 255, 255));&quot;&gt;Configuration,&amp;nbsp;&lt;/span&gt;&lt;span style=&quot;background-color: transparent; color: light-dark(rgb(0, 0, 0), rgb(255, 255, 255));&quot;&gt;int):&lt;/span&gt;&lt;/div&gt;&lt;div&gt;list[AnyMessage]&lt;/div&gt;" style="text;strokeColor=none;fillColor=none;align=left;verticalAlign=top;spacingLeft=4;spacingRight=4;overflow=hidden;rotatable=0;points=[[0,0.5],[1,0.5]];portConstraint=eastwest;whiteSpace=wrap;html=1;" vertex="1" parent="QsYWbDglGBnLHlJFrCsR-5">
          <mxGeometry y="34" width="240" height="36" as="geometry" />
        </mxCell>
        <mxCell id="QsYWbDglGBnLHlJFrCsR-8" value="&lt;div&gt;&lt;span style=&quot;background-color: transparent; color: light-dark(rgb(0, 0, 0), rgb(255, 255, 255));&quot;&gt;+ stream(&lt;/span&gt;&lt;span style=&quot;background-color: transparent; color: light-dark(rgb(0, 0, 0), rgb(255, 255, 255));&quot;&gt;str,&amp;nbsp;&lt;/span&gt;&lt;span style=&quot;background-color: transparent; color: light-dark(rgb(0, 0, 0), rgb(255, 255, 255));&quot;&gt;Configuration,&amp;nbsp;&lt;/span&gt;&lt;span style=&quot;background-color: transparent; color: light-dark(rgb(0, 0, 0), rgb(255, 255, 255));&quot;&gt;int):&lt;/span&gt;&lt;/div&gt;&lt;div&gt;str | Any&lt;/div&gt;" style="text;strokeColor=none;fillColor=none;align=left;verticalAlign=top;spacingLeft=4;spacingRight=4;overflow=hidden;rotatable=0;points=[[0,0.5],[1,0.5]];portConstraint=eastwest;whiteSpace=wrap;html=1;" vertex="1" parent="QsYWbDglGBnLHlJFrCsR-5">
          <mxGeometry y="70" width="240" height="40" as="geometry" />
        </mxCell>
        <mxCell id="QsYWbDglGBnLHlJFrCsR-9" style="edgeStyle=orthogonalEdgeStyle;rounded=0;orthogonalLoop=1;jettySize=auto;html=1;entryX=0.5;entryY=1;entryDx=0;entryDy=0;endArrow=block;endFill=0;" edge="1" parent="1" source="QsYWbDglGBnLHlJFrCsR-10" target="QsYWbDglGBnLHlJFrCsR-1">
          <mxGeometry relative="1" as="geometry" />
        </mxCell>
        <mxCell id="QsYWbDglGBnLHlJFrCsR-10" value="ReportAgent" style="swimlane;fontStyle=1;align=center;verticalAlign=top;childLayout=stackLayout;horizontal=1;startSize=26;horizontalStack=0;resizeParent=1;resizeParentMax=0;resizeLast=0;collapsible=1;marginBottom=0;whiteSpace=wrap;html=1;" vertex="1" parent="1">
          <mxGeometry x="300" y="290" width="330" height="74" as="geometry" />
        </mxCell>
        <mxCell id="QsYWbDglGBnLHlJFrCsR-11" value="" style="line;strokeWidth=1;fillColor=none;align=left;verticalAlign=middle;spacingTop=-1;spacingLeft=3;spacingRight=3;rotatable=0;labelPosition=right;points=[];portConstraint=eastwest;strokeColor=inherit;" vertex="1" parent="QsYWbDglGBnLHlJFrCsR-10">
          <mxGeometry y="26" width="330" height="8" as="geometry" />
        </mxCell>
        <mxCell id="QsYWbDglGBnLHlJFrCsR-12" value="&lt;div&gt;+ invoke(&lt;span style=&quot;background-color: transparent; color: light-dark(rgb(0, 0, 0), rgb(255, 255, 255));&quot;&gt;str, L&lt;/span&gt;&lt;span style=&quot;background-color: transparent; color: light-dark(rgb(0, 0, 0), rgb(255, 255, 255));&quot;&gt;iteral[&quot;general&quot;,&quot;technical&quot;],&amp;nbsp;&lt;/span&gt;&lt;span style=&quot;background-color: transparent; color: light-dark(rgb(0, 0, 0), rgb(255, 255, 255));&quot;&gt;Configuration):&lt;/span&gt;&lt;/div&gt;&lt;div&gt;List[Dict[str,str]]&lt;/div&gt;" style="text;strokeColor=none;fillColor=none;align=left;verticalAlign=top;spacingLeft=4;spacingRight=4;overflow=hidden;rotatable=0;points=[[0,0.5],[1,0.5]];portConstraint=eastwest;whiteSpace=wrap;html=1;" vertex="1" parent="QsYWbDglGBnLHlJFrCsR-10">
          <mxGeometry y="34" width="330" height="40" as="geometry" />
        </mxCell>
        <mxCell id="QsYWbDglGBnLHlJFrCsR-13" style="edgeStyle=orthogonalEdgeStyle;rounded=0;orthogonalLoop=1;jettySize=auto;html=1;entryX=0.5;entryY=1;entryDx=0;entryDy=0;endArrow=block;endFill=0;" edge="1" parent="1" source="QsYWbDglGBnLHlJFrCsR-14" target="QsYWbDglGBnLHlJFrCsR-1">
          <mxGeometry relative="1" as="geometry">
            <Array as="points">
              <mxPoint x="630" y="140" />
              <mxPoint x="465" y="140" />
            </Array>
          </mxGeometry>
        </mxCell>
        <mxCell id="QsYWbDglGBnLHlJFrCsR-14" value="IndexAgent" style="swimlane;fontStyle=1;align=center;verticalAlign=top;childLayout=stackLayout;horizontal=1;startSize=26;horizontalStack=0;resizeParent=1;resizeParentMax=0;resizeLast=0;collapsible=1;marginBottom=0;whiteSpace=wrap;html=1;" vertex="1" parent="1">
          <mxGeometry x="510" y="160" width="240" height="60" as="geometry" />
        </mxCell>
        <mxCell id="QsYWbDglGBnLHlJFrCsR-15" value="" style="line;strokeWidth=1;fillColor=none;align=left;verticalAlign=middle;spacingTop=-1;spacingLeft=3;spacingRight=3;rotatable=0;labelPosition=right;points=[];portConstraint=eastwest;strokeColor=inherit;" vertex="1" parent="QsYWbDglGBnLHlJFrCsR-14">
          <mxGeometry y="26" width="240" height="8" as="geometry" />
        </mxCell>
        <mxCell id="QsYWbDglGBnLHlJFrCsR-16" value="&lt;div&gt;+ invoke(&lt;span style=&quot;background-color: transparent; color: light-dark(rgb(0, 0, 0), rgb(255, 255, 255));&quot;&gt;str,&amp;nbsp;&lt;/span&gt;&lt;span style=&quot;background-color: transparent; color: light-dark(rgb(0, 0, 0), rgb(255, 255, 255));&quot;&gt;Configuration)&lt;/span&gt;&lt;/div&gt;" style="text;strokeColor=none;fillColor=none;align=left;verticalAlign=top;spacingLeft=4;spacingRight=4;overflow=hidden;rotatable=0;points=[[0,0.5],[1,0.5]];portConstraint=eastwest;whiteSpace=wrap;html=1;" vertex="1" parent="QsYWbDglGBnLHlJFrCsR-14">
          <mxGeometry y="34" width="240" height="26" as="geometry" />
        </mxCell>
      </root>
    </mxGraphModel>
  </diagram>
</mxfile>
